<?xml version="1.0" standalone="no"?>
<!DOCTYPE svg PUBLIC "-//W3C//DTD SVG 1.1//EN" "http://www.w3.org/Graphics/SVG/1.1/DTD/svg11.dtd" >
<svg xmlns="http://www.w3.org/2000/svg">
<metadata>
Created by FontForge 20120731 at Wed Mar 23 18:01:12 2016
 By Ads
</metadata>
<defs>
<font id="iconfont" horiz-adv-x="1024" >
  <font-face 
    font-family="iconfont"
    font-weight="500"
    font-stretch="normal"
    units-per-em="1024"
    panose-1="2 0 6 3 0 0 0 0 0 0"
    ascent="896"
    descent="-128"
    x-height="792"
    bbox="7 -82 1015 850"
    underline-thickness="50"
    underline-position="-100"
    unicode-range="U+0078-E6D6"
  />
<missing-glyph horiz-adv-x="374" 
d="M34 0v682h272v-682h-272zM68 34h204v614h-204v-614z" />
    <glyph glyph-name=".notdef" horiz-adv-x="374" 
d="M34 0v682h272v-682h-272zM68 34h204v614h-204v-614z" />
    <glyph glyph-name=".null" horiz-adv-x="0" 
 />
    <glyph glyph-name="nonmarkingreturn" horiz-adv-x="341" 
 />
    <glyph glyph-name="x" unicode="x" horiz-adv-x="1001" 
d="M281 543q-27 -1 -53 -1h-83q-18 0 -36.5 -6t-32.5 -18.5t-23 -32t-9 -45.5v-76h912v41q0 16 -0.5 30t-0.5 18q0 13 -5 29t-17 29.5t-31.5 22.5t-49.5 9h-133v-97h-438v97zM955 310v-52q0 -23 0.5 -52t0.5 -58t-10.5 -47.5t-26 -30t-33 -16t-31.5 -4.5q-14 -1 -29.5 -0.5
t-29.5 0.5h-32l-45 128h-439l-44 -128h-29h-34q-20 0 -45 1q-25 0 -41 9.5t-25.5 23t-13.5 29.5t-4 30v167h911zM163 247q-12 0 -21 -8.5t-9 -21.5t9 -21.5t21 -8.5q13 0 22 8.5t9 21.5t-9 21.5t-22 8.5zM316 123q-8 -26 -14 -48q-5 -19 -10.5 -37t-7.5 -25t-3 -15t1 -14.5
t9.5 -10.5t21.5 -4h37h67h81h80h64h36q23 0 34 12t2 38q-5 13 -9.5 30.5t-9.5 34.5q-5 19 -11 39h-368zM336 498v228q0 11 2.5 23t10 21.5t20.5 15.5t34 6h188q31 0 51.5 -14.5t20.5 -52.5v-227h-327z" />
    <glyph glyph-name="uniE600" unicode="&#xe600;" 
d="M853 -14h-682q-10 0 -16.5 6.5t-6.5 16t6.5 16t16.5 6.5h682q7 0 12 -3t8 -8t3 -11q0 -19 -18 -23h-5zM528 106q-7 -7 -16.5 -7t-15.5 7q-34 34 -36 37l-260 260q-7 7 -7 16.5t7 15.5q4 5 10 6.5t12 0t10 -6.5l257 -257v581q0 10 7 16.5t16 6.5q6 0 11.5 -3t8.5 -8t3 -12
v-582l257 257q7 7 16 7t16 -6.5t7 -16t-7 -16.5z" />
    <glyph glyph-name="uniE601" unicode="&#xe601;" 
d="M853 -14h-682q-10 0 -16.5 6.5t-6.5 16t6.5 16t16.5 6.5h682q5 0 9 -1.5t7 -4.5t5 -7.5t2 -8.5q-5 -19 -23 -23zM745 323l-32 32l79 79q7 7 16 7t16 -6.5t7 -16t-7 -16.5zM489 759q0 10 7 16.5t16 6.5t16 -6.5t7 -16.5v-226l-46 45v181zM800 173.5q-4 -4.5 -10 -6t-12 0
t-10 5.5l-503 503q-7 7 -7 16.5t7 16t16.5 6.5t15.5 -7l503 -502q4 -5 5.5 -10.5t0 -11.5t-5.5 -10.5zM489 372l46 -46v-149l74 75l33 -33l-114 -113q-5 -5 -10.5 -6.5t-11.5 0t-10 6.5q-2 1 -3 4l-1 1l-292 292q-7 7 -7 16.5t7 16t16 6.5t16 -7l257 -257v194z" />
    <glyph glyph-name="uniE602" unicode="&#xe602;" 
d="M896 -14q0 -1 -0.5 -1.5t0.5 -1.5v3q0 -10 -6.5 -16.5t-16.5 -6.5q-6 0 -11.5 3t-9 8.5t-3.5 11.5q-10 36 -28.5 68.5t-42.5 60.5t-54 50.5t-63.5 38t-71.5 24t-77 8.5q-117 0 -211 -72.5t-127 -182.5v5q0 -6 -2 -10.5t-6 -7t-8 -4t-7 -1.5q-10 0 -16.5 6.5t-6.5 16.5
q0 1 1 3v4q1 0 1 1v1q28 95 97.5 166.5t164.5 101.5q-74 35 -119 104t-45 154q0 117 83 200.5t201 83.5t201 -83.5t83 -200.5q0 -56 -20.5 -107t-57.5 -89.5t-86 -61.5q95 -30 164.5 -101.5t97.5 -166.5l1 -5zM751 521q0 32 -8.5 63t-24 57t-37.5 48t-48.5 37.5t-57.5 24
t-63 8.5q-99 0 -169 -69.5t-70 -168.5t70 -169t169 -70t169 70t70 169z" />
    <glyph glyph-name="uniE603" unicode="&#xe603;" 
d="M927 400l-387 387q-15 15 -17 16q-5 5 -11 6q-6 0 -10 -5l-6 -4q-3 -2 -4.5 -3.5t-4.5 -5t-4 -4.5l-386 -386q-5 -4 -6.5 -10t0 -12t6.5 -10l1 -1q3 -3 7 -5t9 -2h91v-318q0 -29 20 -49t48 -20h478q29 0 49 20t20 49v318h91l9 2q4 2 7 5q7 7 7 16.5t-7 15.5zM797 407
q-10 0 -16.5 -7t-6.5 -16v-23v-30v-266q0 -9 -3.5 -17.5t-9.5 -14.5t-14.5 -9.5t-17.5 -3.5h-185q2 6 2 11v205q0 7 -2.5 13.5t-7 11t-11 7t-13.5 2.5q-14 0 -24 -10t-10 -24v-205q0 -5 3 -11h-185q-19 0 -32 13.5t-13 31.5v296v22v1q0 9 -7 16t-16 7h-61l344 344l345 -344
h-59z" />
    <glyph glyph-name="uniE604" unicode="&#xe604;" 
d="M671 78q-42 0 -85 -12t-51 -34v-1h-46q-8 22 -51 34t-85 12h-251v660h273q12 0 24 -2t23.5 -5.5t22 -8t20 -11t18 -14t16 -16t13.5 -18.5q21 34 57.5 54.5t79.5 20.5h273v-659h-251zM489 600q0 39 -34.5 65t-79.5 26h-227v-569h205q115 2 136 -33v25q-1 37 0 77v395v14z
M876 691h-227q-45 0 -79.5 -26t-34.5 -65v-14v-395v-13v-30v-33v-26q21 36 136 34h205v568z" />
    <glyph glyph-name="uniE605" unicode="&#xe605;" 
d="M219 -9zM194 -9q0 10 7.5 17t17.5 7t17.5 -7t7.5 -17t-7.5 -17.5t-17.5 -7.5t-17.5 7.5t-7.5 17.5zM786 -33zM764 805h-501q-28 0 -48 -20t-20 -48v-691v-15v-43q-2 -3 2 1q20 17 25 14q3 -3 6 -12t5.5 -13t6.5 -1l272 231l274 -232l8 -7q7 -6 16 -6t15 7q5 5 6 13h1v48
v32v674q0 7 -1.5 13.5t-4 12.5t-6.5 11.5t-8.5 10.5t-10 8.5t-11.5 6t-12.5 4t-13.5 1.5zM786 122v-68v-20l-253 215q-2 4 -4 5q-4 5 -10 6.5t-12 0t-10 -6.5l-257 -217v17v68v592q0 19 13.5 32t32.5 13h455q7 0 14 -2t12.5 -6.5t10 -10t6.5 -12.5t2 -14v-592z" />
    <glyph glyph-name="uniE606" unicode="&#xe606;" 
d="M243 288l-59 -35q-3 -2 -5 -4t-3.5 -4.5t-2.5 -5.5t-1 -6t1 -6t2 -5q5 -9 14 -11t17 2l60 35q8 5 10.5 14t-2 17.5t-14 10.5t-17.5 -2zM182 580l60 -34q5 -3 11 -3t11.5 3t8.5 9q5 8 2.5 17t-10.5 14l-60 34q-8 5 -17.5 2.5t-14.5 -10.5q-2 -4 -2.5 -9t0.5 -9t4 -7.5
t7 -6.5zM781 549l59 34q8 5 10.5 14t-2 17.5t-13.5 11t-17 -2.5l-60 -35q-8 -5 -10.5 -14t2.5 -17q3 -6 8 -9t11 -2.5t12 3.5zM512 668q9 0 16 7t7 16v68q0 3 -0.5 5.5t-2 5t-3 4.5t-3.5 3.5t-4 2.5t-4.5 1.5t-5.5 0.5q-6 0 -11.5 -3t-8.5 -8t-3 -12v-68q0 -9 7 -16t16 -7z
M603 31h-182q-9 0 -16 -6.5t-7 -16t7 -16t16 -6.5h182q9 0 16 6.5t7 16t-7 16t-16 6.5zM842 256l-60 34q-8 5 -17 2.5t-14 -10.5q-2 -4 -2.5 -8.5t0.5 -9t3.5 -8t6.5 -5.5l60 -35q8 -4 17.5 -1.5t14 10.5t2 17t-10.5 14zM762 397q0 103 -73 176t-177 73t-177 -73t-73 -176
q0 -31 17.5 -68.5t42 -69.5t57.5 -66l-2 -4q-1 -2 -1.5 -4.5t-0.5 -5.5v-91q0 -14 10 -24t25 -10h182l13 3q3 -3 9 -3q15 0 25 10t10 24v91l-4 14q52 54 84.5 106t32.5 98zM603 211v-3v-29v-26v-33v-23h-183v114q-30 32 -53 62t-40.5 65t-17.5 63q0 82 59.5 139.5
t143.5 57.5t143.5 -57.5t59.5 -139.5q0 -72 -112 -190zM375 205h17v-49h-17v49zM633 205h16v-37h-16v37zM585 67h28v-13h-28v13z" />
    <glyph glyph-name="uniE607" unicode="&#xe607;" 
d="M432 20h160q9 0 15.5 -6.5t6.5 -16t-6.5 -16.5t-15.5 -7h-160q-6 0 -11 3t-8 8.5t-3 11.5q0 10 6.5 16.5t15.5 6.5zM819 486q0 128 -90 218t-217 90q-83 0 -154 -41.5t-112 -112t-41 -154.5q0 -116 182 -317v-1v-91q0 -6 1.5 -11t5 -9.5t7.5 -7.5t9 -4.5t11 -1.5h182
q14 0 24 10t10 24v91v1q182 201 182 317zM599 204q-5 -2 -6 -11v-106h-161v33v14v22v12v30l-1 1q-181 174 -181 283q0 110 77 188t185 78t185 -78t77 -188q0 -109 -175 -278zM446 608zM424 608q0 9 6.5 15.5t16 6.5t16 -6.5t6.5 -15.5t-6.5 -15.5t-16 -6.5t-16 6.5
t-6.5 15.5zM341 509zM444 630q-60 -12 -89 -66q-13 -26 -14 -55v-3v-5v-3q0 -5 2 -9t5 -7t7 -5t9 -2q10 0 16.5 6.5t6.5 16.5v7v2v2q0 30 19.5 52t48.5 27h1z" />
    <glyph glyph-name="uniE608" unicode="&#xe608;" 
d="M344 663q5 -8 14 -10.5t17.5 2t11 14t-2.5 17.5l-34 59q-5 8 -14 10.5t-17.5 -2.5t-10.5 -14t2 -17zM512 668q9 0 16 7t7 16v68q0 3 -0.5 5.5t-2 5t-3 4.5t-3.5 3.5t-4 2.5t-4.5 1.5t-5.5 0.5q-6 0 -11.5 -3t-8.5 -8t-3 -12v-68q0 -9 7 -16t16 -7zM648.5 657
q8.5 -5 17.5 -2.5t14 11.5l34 59q4 9 2 18t-10.5 13.5t-17.5 2.5t-14 -11l-34 -59q-5 -9 -2.5 -18t11 -14zM781 549l59 34q8 5 10.5 14t-2 17.5t-13.5 11t-17 -2.5l-60 -35q-8 -5 -10.5 -14t2.5 -17q3 -6 8 -9t11 -2.5t12 3.5zM182 580l60 -34q5 -3 11 -3t11.5 3t8.5 9
q5 8 2.5 17t-10.5 14l-60 34q-8 5 -17.5 2.5t-14.5 -10.5q-2 -4 -2.5 -9t0.5 -9t4 -7.5t7 -6.5zM876 441h-68q-6 0 -11.5 -3t-8.5 -8.5t-3 -11.5q0 -9 6.5 -16t16.5 -7h68q6 0 11.5 3t8.5 8.5t3 11.5q0 10 -6.5 16.5t-16.5 6.5zM512 646q-104 0 -177 -73t-73 -176
q0 -82 113 -200v-18v-64v-27q0 -14 10 -24t25 -10h138h44h26q13 2 22 11.5t9 22.5v63v28v18q113 118 113 200q0 103 -73 176t-177 73zM603 211v-3v-29v-26v-54h-182v23v23v8v15v11v29v3q-48 51 -80 100.5t-32 89.5q0 82 59.5 139.5t143.5 57.5q41 0 78.5 -15.5t65 -42
t43.5 -63t16 -76.5t-32 -89.5t-80 -100.5zM842 256l-60 34q-8 5 -17 2.5t-14 -10.5q-2 -4 -2.5 -8.5t0.5 -9t3.5 -8t6.5 -5.5l60 -35q8 -4 17.5 -1.5t14 10.5t2 17t-10.5 14zM603 31h-182q-9 0 -16 -6.5t-7 -16t7 -16t16 -6.5h182q9 0 16 6.5t7 16t-7 16t-16 6.5zM239 418.5
q0 9.5 -6.5 16t-16.5 6.5h-68q-5 0 -9 -2t-7 -5t-5 -7t-2 -9q0 -9 6.5 -16t16.5 -7h68q10 0 16.5 7t6.5 16.5zM243 288l-59 -35q-4 -2 -7 -6t-4 -8t-0.5 -8.5t2.5 -8.5q3 -6 8.5 -9t11.5 -3t11 3l60 35q8 5 10.5 14t-2 17.5t-14 10.5t-17.5 -2z" />
    <glyph glyph-name="uniE609" unicode="&#xe609;" 
d="M519 223v-1l3 -6zM512 236l7 -13zM512 805q-114 0 -211 -56.5t-153.5 -153.5t-56.5 -211t56.5 -211t153.5 -153.5t211 -56.5t211 56.5t153.5 153.5t56.5 211t-56.5 211t-153.5 153.5t-211 56.5zM512 9q-149 0 -257 102q-107 100 -118 246v27q0 102 50 188.5t136.5 136.5
t188.5 50q76 0 145.5 -29.5t120 -80t80 -120t29.5 -145.5t-29.5 -145.5t-80 -120t-120 -80t-145.5 -29.5zM683 509h-69q-6 0 -11 -3t-8 -8t-3 -12q0 -9 6.5 -15.5t15.5 -6.5h14l-106 -248q-1 1 -1.5 2.5t-1.5 3.5l-132 242h23q6 0 11 3t8 8t3 11q0 5 -1.5 9t-4.5 7.5t-7.5 5
t-8.5 1.5h-91q-10 0 -16.5 -6.5t-6.5 -16.5q0 -6 3 -11t8 -8t12 -3h12l147 -273q3 -10 13 -16.5t21 -6.5t21 6.5t13 16.5l126 273h11q9 0 15.5 6.5t6.5 16t-6.5 16t-15.5 6.5z" />
    <glyph glyph-name="uniE60A" unicode="&#xe60a;" 
d="M899 -26h-273q-9 0 -15.5 7t-6.5 16q0 3 0.5 6t2 5.5t3.5 5t4.5 4t5.5 2t6 0.5h214l-254 257q-6 6 -6 15.5t6.5 16.5t16 7t16.5 -7l250 -253q3 -3 7 -10v226q0 4 1 7.5t3.5 6.5t5 5t6 3t7.5 1q6 0 11 -3t8.5 -8.5t3.5 -11.5v-275q0 -6 -3 -11t-8.5 -8.5t-11.5 -3.5z
M876 407q-9 0 -16 6.5t-7 16.5v113v137q0 9 -3.5 17.5t-9.5 14.5t-14.5 9.5t-17.5 3.5h-182h-68q-10 0 -16.5 7t-6.5 16q0 6 3 11.5t8 8.5t12 3h68h205q18 0 34 -9t25 -25t9 -34v-160v-113q0 -7 -3 -12t-8.5 -8t-11.5 -3zM466 -3h-91h-182q-11 0 -21.5 3.5t-18.5 10
t-14.5 14.5t-10 18.5t-3.5 21.5v160v113q0 7 3 12t8.5 8t11.5 3q9 0 16 -6.5t7 -16.5v-113v-137q0 -9 3.5 -17.5t9.5 -14.5t14.5 -9.5t17.5 -3.5h159h46h45q7 0 12 -3t8 -8.5t3 -11.5q0 -10 -6.5 -16.5t-16.5 -6.5zM405 459l-250 253q-3 3 -7 10v-226q0 -6 -3 -11.5
t-8.5 -8.5t-11.5 -3q-9 0 -16 6.5t-7 16.5v275q0 6 3 11t8.5 8.5t11.5 3.5h273q4 0 8.5 -2t7.5 -5t4.5 -7.5t1.5 -8.5q0 -10 -6.5 -16.5t-15.5 -6.5h-214l253 -257q7 -6 7 -15.5t-6.5 -16.5t-16 -7t-16.5 7z" />
    <glyph glyph-name="uniE60B" unicode="&#xe60b;" 
d="M925 743l-153 -144l153 -143q7 -6 7 -15.5t-7 -16t-16.5 -6.5t-15.5 6l-155 144l-154 -144q-6 -6 -15.5 -6t-16.5 6q-3 3 -4.5 6t-2 6.5t0 7t2 7t4.5 5.5l153 143l-153 144q-7 6 -7 15.5t7 16t16 6.5t16 -6l154 -144l155 144q7 6 16 6t16 -6.5t7 -16t-7 -15.5zM408 714
h-23h-182q-7 0 -14 -2.5t-12.5 -6.5t-10 -9.5t-6.5 -12.5t-2 -15v-546q0 -12 6 -22.5t16.5 -16.5t22.5 -6h592q19 0 32.5 13t13.5 32v91v91v23q0 10 6.5 16.5t16 6.5t16 -6.5t6.5 -16.5v-23v-91v-113q0 -29 -20 -49t-48 -20h-637q-14 0 -27 5.5t-22 14.5t-14.5 22t-5.5 27
v591q0 19 9.5 34.5t25 24.5t34.5 9h204h23q6 0 11.5 -3t8.5 -8t3 -11t-3 -11.5t-8.5 -8.5t-11.5 -3z" />
    <glyph glyph-name="uniE60C" unicode="&#xe60c;" 
d="M865 486q-10 0 -16.5 7t-6.5 16v174q-115 -46 -195.5 -148.5t-99.5 -236.5q-3 -18 -5 -62h-48q2 15 3.5 25t4.5 32q20 143 102 254.5t201 166.5h-191q-9 0 -15.5 6.5t-6.5 16.5q0 3 1 6.5t3 6.5t5 5t6.5 3t6.5 1h251q9 0 15.5 -6.5t6.5 -15.5v-228q0 -18 -17 -22
q-3 -1 -5 -1zM432 691h-22h-182q-19 0 -32.5 -13t-13.5 -32v-546q0 -13 6 -23.5t16.5 -16.5t23.5 -6h546q19 0 32 13.5t13 32.5v91v91v22q0 7 3 12t8.5 8t11.5 3q9 0 16 -6.5t7 -16.5v-22v-91v-114q0 -28 -20 -48t-49 -20h-591q-28 0 -48 20t-20 48v591q0 29 20 49t48 20
h205h22q10 0 16.5 -7t6.5 -16t-6.5 -16t-16.5 -7z" />
    <glyph glyph-name="uniE60D" unicode="&#xe60d;" 
d="M452 277l3 5l22 -12l-3 -5zM774 202q-15 0 -28.5 -3.5t-25.5 -10t-22 -15.5t-18 -20l-208 120q-1 0 -2 1q-5 3 -8 3q8 17 12 35t4 38q0 33 -13 64l170 127q13 -13 29.5 -23t35.5 -15t39.5 -5t39.5 5t35 14.5t30 23.5t23.5 30t14.5 35.5t5 39.5t-5 39t-14.5 35.5t-23.5 30
t-30 23t-35 15t-39 5.5q-62 0 -105 -43.5t-43 -104.5q0 -35 16 -68l-166 -124q-24 31 -59 49t-76 18q-28 0 -54 -9t-47 -24.5t-36.5 -36.5t-24 -47t-8.5 -54q0 -20 4 -39t12.5 -36t20.5 -32t26.5 -26.5t31.5 -20t36 -13t39 -4.5q81 0 131 61l4 -3l6 -3l4 -2l210 -122
q-2 -11 -2 -22q0 -47 33.5 -80.5t80.5 -33.5t80 33.5t33 80.5q0 31 -15 57.5t-41 41.5t-57 15zM739.5 748q27.5 0 51.5 -13.5t37.5 -37t13.5 -51.5t-13.5 -51.5t-37.5 -37.5t-51.5 -14t-51 14t-37.5 37.5t-14 51.5t14 51.5t37.5 37t51 13.5zM307 222q-53 0 -90.5 37.5
t-37.5 90.5t37.5 90.5t90.5 37.5h1v0h1q52 0 89 -37t37 -90v-1q0 -53 -37.5 -90.5t-90.5 -37.5zM774 20q-29 0 -49 20t-20 48t20 48t48.5 20t48.5 -20t20 -48q0 -41 -36 -60q-16 -8 -32 -8z" />
    <glyph glyph-name="uniE60E" unicode="&#xe60e;" 
d="M865 646h-706q-9 0 -15.5 6.5t-6.5 15.5q0 7 3 12t8 8t11 3h706q6 0 11 -3t8 -8t3 -11.5t-3 -11.5t-8 -8t-11 -3zM637 737h-250q-10 0 -16.5 6.5t-6.5 15.5q0 5 2 9.5t5 7.5t7 4.5t9 1.5h250q5 0 9 -1.5t7 -4.5t5 -7.5t2 -9t-2 -9t-5 -7.5t-7 -4.5t-9 -1.5zM410 145v387
q0 6 3 11.5t8 8.5t11 3q10 0 16.5 -7t6.5 -16v-387q0 -6 -3 -11.5t-8 -8.5t-11.5 -3t-11.5 3t-8 8.5t-3 11.5zM569 145v387q0 9 6.5 16t16 7t16 -7t6.5 -16v-387q0 -9 -6.5 -16t-16 -7t-16 7t-6.5 16zM250 577q4 0 7.5 -1t6.5 -3t5 -5t3 -6.5t1 -6.5v-27v-87v-364
q0 -19 13.5 -32.5t32.5 -13.5h386q19 0 32.5 13.5t13.5 32.5v364v87v27q0 3 1 6.5t3 6.5t5 5t6.5 3t7.5 1q6 0 11 -3t8 -8t3 -11v-91v-23v-387q0 -11 -3 -21.5t-9.5 -19t-15 -14.5t-19 -9.5t-21.5 -3.5h-432q-28 0 -48 20t-20 48v345v42v23v91q0 4 1.5 8.5t4.5 7.5t7.5 4.5
t8.5 1.5z" />
    <glyph glyph-name="uniE60F" unicode="&#xe60f;" 
d="M916 368q-3 -79 -35.5 -149.5t-85.5 -121.5t-125 -81t-151 -30q-108 0 -200 53t-145 145t-53 200t53 200t145 145t200 53q67 0 130 -22t113.5 -61.5t86.5 -93.5v154q0 7 3 12t8 8t11 3q10 0 16.5 -6.5t6.5 -16.5v-204q0 -10 -6.5 -16.5t-16.5 -6.5h-204q-10 0 -16.5 6.5
t-6.5 16.5q0 3 1 6.5t3 6.5t5 5t6.5 3t7.5 1h146q-32 49 -77 84.5t-101 55.5t-116 20q-72 0 -137.5 -28t-112.5 -75.5t-75 -112.5t-28 -137q0 -96 47 -177t128.5 -128.5t177.5 -47.5q94 0 174 45.5t127.5 124t50.5 172.5q0 3 1.5 6.5t3.5 6.5t5 5t6.5 3t6.5 1q5 0 9 -1.5
t7 -4.5t5 -7.5t2 -8.5q0 -3 -1 -5zM849 577v6l-9 -6h9z" />
    <glyph glyph-name="uniE610" unicode="&#xe610;" 
d="M313 35l349 349l-349 349q-7 7 -7 16.5t6.5 16t16 6.5t16.5 -6l345 -345q16 -15 21 -20q7 -7 7 -17t-7 -17q-4 -4 -25.5 -25t-22.5 -22l-318 -318q-7 -6 -16.5 -6t-16 6.5t-6.5 16t7 16.5z" />
    <glyph glyph-name="uniE611" unicode="&#xe611;" 
d="M865 122h-114v-113q0 -10 -6.5 -16.5t-16 -6.5t-16.5 6.5t-7 16.5v113h-113q-10 0 -16.5 7t-6.5 16q0 6 3 11.5t8 8.5t12 3h113v114q0 6 3.5 11t8.5 8t11 3q10 0 16.5 -6.5t6.5 -15.5v-114h114q9 0 15.5 -7t6.5 -16q0 -4 -1 -7.5t-3 -6t-5 -4.5t-6.5 -3.5t-6.5 -1.5z
M705 691q0 8 -2 15t-6.5 12.5t-10 9.5t-12.5 6.5t-14 2.5h-432q-19 0 -32.5 -13.5t-13.5 -32.5v-614q0 -19 13.5 -32.5t32.5 -13.5h295v-45h-318q-28 0 -48 20t-20 48v660q0 28 20 48t48 20h478q14 0 26.5 -5.5t21.5 -14.5t14.5 -21.5t5.5 -26.5v-296h-46v273z" />
    <glyph glyph-name="uniE612" unicode="&#xe612;" 
d="M512 -37q-114 0 -211 56.5t-153.5 153.5t-56.5 211t56.5 211t153.5 153.5t211 56.5q57 0 111.5 -15t101 -42.5t85 -66t66 -85t42.5 -101t15 -111.5q0 -86 -33.5 -164t-89.5 -134t-134 -89.5t-164 -33.5zM512 759q-149 0 -257 -102q-107 -100 -118 -246v-27
q0 -102 50 -188.5t136.5 -136.5t188.5 -50q76 0 145.5 29.5t120 80t80 120t29.5 145.5q0 51 -13.5 99.5t-37.5 90t-58.5 76t-76 58.5t-90 37.5t-99.5 13.5zM728 350h-227q-10 0 -16.5 6.5t-6.5 16.5v250q0 9 6.5 16t16.5 7q6 0 11 -3t8 -8.5t3 -11.5v-228h205
q10 0 16.5 -6.5t6.5 -16t-6.5 -16t-16.5 -6.5z" />
    <glyph glyph-name="uniE613" unicode="&#xe613;" 
d="M512 -37q-114 0 -211 56.5t-153.5 153.5t-56.5 211t56.5 211t153.5 153.5t211 56.5t211 -56.5t153.5 -153.5t56.5 -211t-56.5 -211t-153.5 -153.5t-211 -56.5zM512 759q-149 0 -257 -102q-107 -100 -118 -246v-27q0 -102 50 -188.5t136.5 -136.5t188.5 -50
q76 0 145.5 29.5t120 80t80 120t29.5 145.5q0 51 -13.5 99.5t-37.5 90t-58.5 76t-76 58.5t-90 37.5t-99.5 13.5zM664 122l-160 138q-16 1 -31 6t-28 13t-24 19.5t-18.5 24.5t-11.5 29t-4 32q0 31 16 60l-39 184l-7 24l163 -144q24 -1 45.5 -11.5t37.5 -27t25 -39t9 -46.5
q0 -32 -16 -61l38 -183zM512 464q-22 0 -40 -11t-29 -29t-11 -40q0 -33 23.5 -56.5t56.5 -23.5q22 0 40 11t29 29t11 40q0 33 -23.5 56.5t-56.5 23.5z" />
    <glyph glyph-name="uniE614" unicode="&#xe614;" 
d="M544 384l281 -281q7 -6 7 -15.5t-7 -16.5t-16.5 -7t-15.5 7l-281 281l-279 -280q-7 -6 -16.5 -6t-16.5 6q-4 5 -5.5 10.5t0 11.5t5.5 10l280 280l-281 281q-7 6 -7 15.5t7 16.5t16.5 7t15.5 -7l281 -281l280 280q7 7 16.5 7t16 -7t6.5 -16t-7 -16z" />
    <glyph glyph-name="uniE615" unicode="&#xe615;" 
d="M711 733l-349 -349l349 -349q7 -7 7 -16.5t-6.5 -16t-16 -6.5t-16.5 6l-345 345q-16 15 -21 20q-7 7 -7 17q0 3 0.5 6t2 6t4.5 5q44 44 48 47l318 318q7 6 16.5 6t16 -6.5t6.5 -16t-7 -16.5z" />
    <glyph glyph-name="uniE616" unicode="&#xe616;" 
d="M865 31h-137h-46h-523q-18 0 -34 9.5t-25 25t-9 34.5v120v69v379q0 29 20 49t48 20h706q28 0 48 -20t20 -49v-365v-68v-135q0 -14 -5.5 -27t-14.5 -22t-21.5 -14.5t-26.5 -5.5zM137 122q0 -9 3.5 -17.5t9.5 -14.5t14.5 -9.5t17.5 -3.5h495q-13 77 -59 139t-115.5 98
t-149.5 36q-123 0 -216 -82v-146zM887 646q0 7 -2 14t-6.5 12.5t-10 10t-12.5 6.5t-14 2h-660q-19 0 -32 -13t-13 -32v-320q97 69 216 69q57 0 111.5 -17t99.5 -47.5t79 -73.5q26 43 69.5 68t95.5 25q41 0 79 -18v314zM887 281q-17 11 -37.5 17t-41.5 6q-45 0 -81.5 -24.5
t-54.5 -64.5q20 -31 33 -66t18 -72h119q9 0 17.5 3.5t14.5 9.5t9.5 14.5t3.5 17.5v159zM705.5 486q-18.5 0 -32 13.5t-13.5 32.5q0 7 2.5 14t6.5 12.5t9.5 10t12.5 6.5t14.5 2t14.5 -2t12.5 -6.5t9.5 -10t6.5 -12.5t2.5 -14q0 -19 -13.5 -32.5t-32 -13.5z" />
    <glyph glyph-name="uniE617" unicode="&#xe617;" 
d="M899 213q-10 0 -16.5 7t-6.5 16v68v387q0 8 -2.5 15t-6.5 12.5t-9.5 9.5t-12.5 6.5t-14 2.5h-410h-23h-23q-6 0 -11 3t-8 8t-3 11q0 10 6.5 16.5t15.5 6.5h23h23h432q14 0 27 -5.5t22 -14.5t14.5 -21.5t5.5 -26.5v-410v-68q0 -6 -3 -11.5t-8.5 -8.5t-11.5 -3zM808 600
v-546q0 -14 -5.5 -26.5t-14.5 -21.5t-22 -14.5t-26 -5.5h-569q-14 0 -27 5.5t-22 14.5t-14.5 21.5t-5.5 26.5v546q0 14 5.5 26.5t14.5 22t22 14.5t27 5h569q18 0 34 -9t25 -24.5t9 -34.5zM193 623q-9 0 -17.5 -3.5t-14.5 -9.5t-9.5 -14.5t-3.5 -18.5v-500q0 -19 13.5 -32.5
t31.5 -13.5h524q19 0 32 13.5t13 32.5v500q0 19 -13 32.5t-32 13.5h-524zM455 168q-42 0 -72 43t-30 105q0 40 13.5 74t37 54t51.5 20q43 0 73 -43.5t30 -104.5q0 -24 -5.5 -47t-15 -41t-22 -31.5t-28 -21t-32.5 -7.5zM455 418q-23 0 -40 -30t-17 -72q0 -21 4.5 -40
t12 -32.5t18.5 -22t22 -8.5q24 0 40.5 30t16.5 73q0 28 -7.5 51.5t-20.5 37t-29 13.5z" />
    <glyph glyph-name="uniE618" unicode="&#xe618;" 
d="M512 689q-68 -64 -68 -157q0 -90 63 -153t153 -63q93 0 157 68h59q0 -99 -48.5 -183t-132.5 -132.5t-183 -48.5t-183 48.5t-132.5 132.5t-48.5 183t48.5 183t132.5 132.5t183 48.5v-59zM193 384q0 -132 93.5 -225.5t225.5 -93.5q117 0 205.5 75.5t108.5 188.5
q-73 -59 -166 -59q-71 0 -131.5 35t-95.5 95.5t-35 131.5q0 93 59 166q-113 -20 -188.5 -108.5t-75.5 -205.5z" />
    <glyph glyph-name="uniE619" unicode="&#xe619;" 
d="M843 34zM819 34q0 7 3 12.5t8.5 9t12.5 3.5q10 0 17.5 -7.5t7.5 -17.5q0 -6 -3.5 -12t-9 -9t-12.5 -3q-10 0 -17 7t-7 17zM188 41zM164 41q0 10 7 17t17 7q3 0 6.5 -1t6 -2.5t4.5 -3.5t3.5 -4.5t2.5 -6t1 -6.5q0 -10 -7 -17t-17 -7t-17 7t-7 17zM854 72l-322 652
q-7 16 -23 23q0 8 -8 11q-13 5 -26 -0.5t-18 -18.5l-288 -683q-1 -2 -2 -5l23 -13l19 -8l1 1l98 234h394l114 -230q2 -5 4 -9t4 -7l41 26q-1 3 -2.5 6.5t-2.5 6.5t-3.5 7.5t-2.5 6.5zM327 310l163 385l4 -7l186 -378h-353z" />
    <glyph glyph-name="uniE61A" unicode="&#xe61a;" 
d="M826 68h1q-3 9 -11 27l-277 607q-6 15 -22 23q-1 7 -8 10q-14 6 -26.5 0t-18.5 -19l-265 -637v-1v-2q-6 -7 -6 -14q0 -10 7 -17.5t18 -7.5q8 0 14.5 6t8.5 15v-1l77 185h376l84 -184l2 -4q1 -2 2 -4.5t2 -4.5v-1h1q3 -6 8.5 -10t12.5 -4q11 0 18 7.5t7 17.5q0 3 -1.5 6.5
t-3.5 6.5zM337 288l160 385q3 -5 4 -7l172 -378h-336z" />
    <glyph glyph-name="uniE61B" unicode="&#xe61b;" 
d="M906 581h-114v-114q0 -6 -3 -11.5t-8.5 -8.5t-11.5 -3q-9 0 -16 7t-7 16v114h-113q-7 0 -12 3t-8 8t-3 11.5t3 11.5t8 8t12 3h113v114q0 6 3.5 11.5t8.5 8.5t11 3q10 0 16.5 -7t6.5 -16v-114h114q6 0 11 -3t8 -8t3 -11q0 -10 -6.5 -16.5t-15.5 -6.5zM431 656q4 9 4 18
q0 10 -5 19t-13.5 14t-19.5 5q-16 0 -27 -11t-11 -27q0 -9 5 -18h67zM117 39zM93 39q0 5 2 9.5t5.5 7.5t7.5 5t9 2t9.5 -2t7.5 -5t5 -7.5t2 -9.5q0 -6 -3 -11.5t-8.5 -9t-12.5 -3.5q-10 0 -17 7t-7 17zM696 52zM670 51.5q0 10.5 7.5 18t18 7.5t18 -7.5t7.5 -18t-7.5 -18
t-18 -7.5t-18 7.5t-7.5 18zM715 65v1q0 2 -1 3l-276 607q-4 8 -9.5 14t-13.5 9q-2 7 -8 11q-13 5 -26 -0.5t-18 -19.5l-265 -636v-1v-1l41 -22l78 187h376l79 -175zM236 262l160 385l2 -4q1 -2 2 -3l172 -378h-336z" />
    <glyph glyph-name="uniE61C" unicode="&#xe61c;" 
d="M910 133zM876 133q0 15 10 25t24 10q10 0 17.5 -4.5t12.5 -12.5t5 -18q0 -14 -10 -24t-25 -10q-9 0 -17 4.5t-12.5 12.5t-4.5 17zM876 235q0 -7 3 -12t8.5 -8t11.5 -3q9 0 16 6.5t7 16.5h-1v1v2q1 5 1 8q0 26 -7 51.5t-19.5 46.5t-30.5 39t-39 30.5t-46 19.5t-52 7
q-22 -1 -44 -6q33 49 33 108q0 80 -56.5 136.5t-136.5 56.5t-137 -56.5t-57 -136.5q0 -46 21 -87l-18 4q-9 2 -18.5 2.5t-18.5 0.5q-89 0 -152.5 -63t-63.5 -152.5t63.5 -153t152.5 -63.5q15 0 29 2t28 6l21 8q7 4 19 8.5t19.5 7.5t18.5 11t21 19q48 53 80.5 96t40 57
t10.5 21q5 6 19.5 34.5t33.5 53t40 30.5l22 7q7 1 15 2t15 1q74 0 118 -58q30 -40 30 -90q0 -2 -0.5 -6t-0.5 -5h1zM295 77q-34 0 -65.5 13.5t-54.5 36.5t-36.5 54.5t-13.5 65.5q0 71 50 121t120 50q35 0 66.5 -13.5t54.5 -36.5t36.5 -54.5t13.5 -66.5q0 -82 -64 -133
q-47 -37 -107 -37zM523 395q-61 0 -104.5 43.5t-43.5 104.5q0 20 5.5 39.5t15 35.5t23 30t30 23.5t35.5 14.5t39 5q61 0 104.5 -43t43.5 -104.5t-43.5 -105t-104.5 -43.5zM297 462q-90 0 -153.5 -64t-63.5 -154.5t63.5 -154.5t153.5 -64t153.5 64t63.5 154.5t-63.5 154.5
t-153.5 64zM297 74q-71 0 -121 50t-50 121t50 121.5t121 50.5t121 -50.5t50 -121.5t-50 -121t-121 -50z" />
    <glyph glyph-name="uniE61D" unicode="&#xe61d;" 
d="M512 -11h-1q-88 32 -164.5 114t-121 186.5t-44.5 202.5q0 44 6 72q-1 -1 -5 -3l8 5l322 204v50q-4 1 -7 0h-1q-1 0 -1 -0.5t-1 -0.5q-5 -1 -8 -2l-341 -217q-19 -11 -17 -30h-1v-16q-1 -6 0 -32t1 -30q0 -80 28.5 -166t77 -161t119.5 -133.5t150 -83.5h1v41zM512 -11h1
q88 32 164.5 114t121 186.5t44.5 202.5q0 44 -6 72q1 -1 5 -3l-8 5l-322 204v50q4 1 7 0h1q1 0 1 -1h1l8 -2l341 -217q19 -11 17 -30h1v-16v-20q0 -9 -0.5 -22t-0.5 -20q0 -108 -47.5 -220.5t-135 -201.5t-192.5 -122h-1v41z" />
    <glyph glyph-name="uniE61E" unicode="&#xe61e;" 
d="M511 606q-14 0 -24 -10t-10 -24v-273q0 -9 4.5 -17t12.5 -12.5t17 -4.5q6 0 11 1.5t9.5 4.5t7.5 7.5t5 9.5t2 11v273q0 5 -1.5 9t-3.5 8t-5.5 7t-7 5.5t-8 3.5t-9.5 1zM511 185zM477 185q0 14 10 24t24.5 10t24.5 -10t10 -24t-10 -24t-24.5 -10t-24.5 10t-10 24zM512 -11
h-1q-88 32 -164.5 114t-121 186.5t-44.5 202.5q0 44 6 72q-1 -1 -5 -3l8 5l322 204v50q-4 1 -7 0h-1q-1 0 -1 -0.5t-1 -0.5q-5 -1 -8 -2l-341 -217q-19 -11 -17 -30h-1v-16q-1 -6 0 -32t1 -30q0 -80 28.5 -166t77 -161t119.5 -133.5t150 -83.5h1v41zM512 -11h1
q88 32 164.5 114t121 186.5t44.5 202.5q0 44 -6 72q1 -1 5 -3l-8 5l-322 204v50q4 1 7 0h1q1 0 1 -1h1l8 -2l341 -217q19 -11 17 -30h1v-16v-20q0 -9 -0.5 -22t-0.5 -20q0 -108 -47.5 -220.5t-135 -201.5t-192.5 -122h-1v41z" />
    <glyph glyph-name="uniE61F" unicode="&#xe61f;" 
d="M893 585l-412 -415l-5 -4l-10 -10q-5 -4 -5 -5q-7 -6 -16.5 -6t-15.5 6l-298 298q-4 4 -5.5 10t0 11.5t5.5 10.5q7 6 16.5 6t16.5 -6l280 -281l416 417q7 6 16.5 6t16 -6.5t6.5 -16t-6 -15.5z" />
    <glyph glyph-name="uniE620" unicode="&#xe620;" 
d="M512 -48q-117 0 -217 57.5t-157.5 157.5t-57.5 217t57.5 217t157.5 157.5t217 57.5t217 -57.5t157.5 -157.5t57.5 -217t-57.5 -217t-157.5 -157.5t-217 -57.5zM535 770v-113q0 -9 -7 -16t-16 -7t-16 7t-7 16v113q-96 -6 -177.5 -55t-130.5 -130.5t-55 -177.5h113
q9 0 16 -7t7 -16q0 -6 -3 -11.5t-8.5 -8.5t-11.5 -3h-113q6 -96 55 -177.5t130.5 -130.5t177.5 -55v113q0 9 7 16t16 7t16 -7t7 -16v-113q146 9 250 113t113 250h-113q-9 0 -16 7t-7 16t7 16t16 7h113q-9 146 -113 250t-250 113zM512 338q-12 0 -22.5 6.5t-17 17t-6.5 22.5
q0 19 13.5 32.5t32.5 13.5q12 0 22.5 -6.5t17 -17t6.5 -22.5q0 -19 -13.5 -32.5t-32.5 -13.5z" />
    <glyph glyph-name="uniE621" unicode="&#xe621;" 
d="M410 486zM385 486q0 5 2 9.5t5.5 8t8 5.5t9.5 2q10 0 17.5 -7.5t7.5 -17.5q0 -5 -2 -9.5t-5.5 -8t-8 -5.5t-9.5 -2q-10 0 -17.5 7.5t-7.5 17.5zM519 305zM494 305q0 18 18 23q4 1 7 1q10 0 17 -7t7 -17t-7 -17.5t-17 -7.5q-7 0 -12.5 3.5t-9 9t-3.5 12.5zM478 236h68v-68
h-68v68zM774 805h-524q-15 0 -28.5 -4.5t-25 -13t-20 -19.5t-13 -25t-4.5 -29v-660q0 -38 27 -64.5t64 -26.5h524q37 0 64 26.5t27 64.5v660q0 38 -27 64.5t-64 26.5zM819 54q0 -19 -13 -32t-32 -13h-524q-19 0 -32 13t-13 32v660q0 6 1.5 12t4.5 11t7 9t9 7t11 4.5t12 1.5
h524q19 0 32 -13t13 -32v-660zM522 602q-27 0 -52.5 -9t-44 -24t-29.5 -35.5t-11 -43.5v-2v-2h49v2v2q0 20 12 37t33 27t45.5 10t46 -10t34.5 -27t13 -37v-3l-1 -1h43v2v2q0 46 -40.5 79t-97.5 33zM619 566q-41 34 -110 34q-9 0 -17 -1t-14 -2t-12.5 -4t-10.5 -5t-10 -6.5
t-9 -7.5l-9 -7q-12 -11 -21 -22t-14 -24t-7 -26h44l1 1v3q1 3 3 6t5 7q10 20 32 32q23 13 57 13q41 0 64 -18h1v-1q3 -2 6 -6q20 -17 20 -42q0 -16 -8 -29t-22 -21q-10 -5 -23 -15t-26 -23q-11 -11 -19.5 -21.5t-14 -19.5t-7.5 -16q0 -1 -0.5 -1.5t-0.5 -1.5l-2 -4v-1l-1 -6
v-1v-1v-3v-6v-7v-11h46l1 1l1 1h1q0 2 1 6v3v6q0 20 5 29q6 12 32 31q24 20 40 35t24 26q15 22 15 47q0 45 -41 79z" />
    <glyph glyph-name="uniE622" unicode="&#xe622;" 
d="M808 -37h-592q-28 0 -48 20t-20 48v706q0 28 20 48t48 20h592q18 0 34 -9t25 -25t9 -34v-706q0 -28 -20 -48t-48 -20zM831 714q0 7 -2.5 14t-6.5 12.5t-10 10t-13 6.5t-14 2h-546q-7 0 -14 -2t-13 -6.5t-10 -10t-6.5 -12.5t-2.5 -14v-660q0 -12 6.5 -22.5t17 -16.5
t22.5 -6h546q9 0 17.5 3.5t14.5 9.5t10 14.5t4 17.5v660zM716 561q-3 -39 -20.5 -74t-44.5 -60t-63 -39.5t-76 -14.5q-80 0 -138.5 54t-65.5 134q-24 13 -24 39q0 19 13.5 32.5t32.5 13.5t32 -13.5t13 -32.5q0 -25 -21 -38q6 -61 51 -102.5t107 -41.5t107 41.5t51 102.5
q-21 13 -21 38q0 8 2 14.5t6.5 12.5t10 10t12.5 6.5t14 2.5q9 0 17.5 -4t14.5 -10t10 -14.5t4 -17.5q0 -8 -3 -16t-8.5 -14t-12.5 -9z" />
    <glyph glyph-name="uniE623" unicode="&#xe623;" 
d="M512 -37q-114 0 -211 56.5t-153.5 153.5t-56.5 211q0 86 33.5 164t89.5 134t134 89.5t164 33.5q114 0 211 -56.5t153.5 -153.5t56.5 -211t-56.5 -211t-153.5 -153.5t-211 -56.5zM512 759q-149 0 -257 -102q-107 -100 -118 -246v-27q0 -102 50 -188.5t136.5 -136.5
t188.5 -50q76 0 145.5 29.5t120 80t80 120t29.5 145.5q0 51 -13.5 99.5t-37.5 90t-58.5 76t-76 58.5t-90 37.5t-99.5 13.5zM683 304q0 -43 -38 -75t-99 -37v-21q0 -11 -6.5 -18.5t-16 -7.5t-16 7.5t-6.5 18.5v21q-54 5 -89.5 30t-43.5 62q-4 6 -4 12q0 30 22 30
q13 0 21.5 -7.5t8.5 -18.5v-1h2q2 -9 9 -19t17.5 -18.5t25 -15.5t31.5 -10v137q-61 4 -99 36t-38 77.5t38 77.5t99 35v21q0 11 6.5 18.5t16 7.5t16 -7.5t6.5 -18.5v-23q95 -16 111 -91q3 -6 3 -11q0 -8 -2 -13.5t-6.5 -9.5t-11.5 -4q-6 0 -10.5 3.5t-7.5 8.5t-4.5 11
t-1.5 11v1h-1q-4 17 -22.5 30t-46.5 19v-135q23 -2 42.5 -7t34.5 -12.5t26.5 -17.5t19 -22t11 -25.5t3.5 -28.5zM546 236q38 6 65 26t27 42q0 26 -22 46t-70 24v-138zM501 554q-15 -1 -29.5 -5.5t-25.5 -11t-20 -14.5t-13.5 -17.5t-4.5 -19.5q0 -24 27.5 -44t65.5 -24v136z
" />
    <glyph glyph-name="uniE624" unicode="&#xe624;" 
d="M494 748q63 0 116.5 -30t86 -82.5t35.5 -114.5h46q-5 114 -87 193.5t-197 79.5q-118 0 -201.5 -83.5t-83.5 -201.5q0 -45 14.5 -88t40 -78t59.5 -61v0q0 -1 1 -3v-2q-51 -24 -93 -61t-72 -84.5t-46 -101.5q-1 -1 -1.5 -2t-0.5 -3q0 -1 -1 -2.5t-1 -2.5h1q0 -9 6.5 -16
t16 -7t16 7t6.5 16h1q24 78 80 138t133 89v3q22 8 22 32q0 14 -10 24t-24 10h-1q0 -1 -1 -1q-30 22 -52.5 51.5t-35 66.5t-12.5 76q0 99 70 169t169 70zM891 299l-104 74l-38 27q-7 7 -16 7q-5 0 -9 -1.5t-8 -5.5l-159 -113q-7 -8 -6 -18v-157q-1 -10 6 -17l159 -114
q3 -2 5.5 -3.5t5.5 -2.5t6 -1q9 0 16 7l159 114q3 3 5 7t2 9v159q0 5 -2 9t-5 8zM716 218q-7 -7 -6 -17v-158v-1v-1l-114 81v137l137 97l98 -69zM869 123l-114 -82v1l1 1v147l113 69v-136z" />
    <glyph glyph-name="uniE625" unicode="&#xe625;" 
d="M774 -37h-524q-28 0 -48 20t-20 48v706q0 18 9 34t25 25t34 9h524q28 0 48 -20t20 -48v-706q0 -28 -20 -48t-48 -20zM796 714q0 19 -13 32t-32 13h-478q-7 0 -14 -2t-12.5 -6.5t-10 -10t-6.5 -12.5t-2 -14v-660q0 -19 13 -32t32 -13h478q19 0 32 13t13 32v660zM592 77
h-160q-6 0 -11 3t-8 8t-3 12q0 9 6.5 15.5t15.5 6.5h160q9 0 15.5 -6.5t6.5 -15.5q0 -7 -3 -12t-8 -8t-11 -3z" />
    <glyph glyph-name="uniE626" unicode="&#xe626;" 
d="M808.5 257q-6.5 0 -11.5 3t-8 8.5t-3 11.5v387v-21q1 0 -5 11l-3 7q7 -7 7 -16.5t-7 -15.5l-546 -570q-7 -7 -16.5 -7t-16 7t-6.5 16.5t7 15.5l546 570q1 1 5 3h-352q-10 0 -16.5 6.5t-6.5 16t6.5 16t16.5 6.5h409q7 0 12 -3t8 -8t3 -11v-410q0 -6 -3 -11.5t-8 -8.5
t-11.5 -3zM757 654.5q0 9.5 5 16.5t11.5 7t11 -7t4.5 -16q0 -7 -2 -12.5t-5.5 -8.5t-8.5 -3q-6 0 -11 7t-5 16.5z" />
    <glyph glyph-name="uniE627" unicode="&#xe627;" 
d="M941 362q-1 -3 -2 -5.5t-3 -4.5l-109 -109q-5 -4 -10.5 -5.5t-11.5 0t-10 5.5q-7 7 -7 16.5t7 16.5l75 74h-199q-9 0 -15.5 7t-6.5 16q0 5 1.5 9t4.5 7t7.5 5t8.5 2h195l-74 74q-5 4 -6.5 10t0 12t6.5 10.5t11 6.5t12 0t10 -6l112 -112q8 -7 7 -17v-1q0 -3 -0.5 -5.5
t-2.5 -5.5zM609 655l-74 75v-198q0 -6 -3 -11.5t-8.5 -8.5t-11.5 -3q-9 0 -16 6.5t-7 16.5v196l-75 -75q-3 -3 -6 -4.5t-6.5 -2t-7.5 0t-7 2t-6 4t-4.5 6t-2 7t0 7t2 7t4.5 6.5l112 112q7 7 18 7h1q6 0 11 -4q6 -1 9 -5l109 -109q7 -6 7 -15.5t-7 -16.5q-2 -2 -5.5 -4
t-7 -2.5t-7 0t-6.5 2.5zM353 350h-199l75 -75q7 -7 7 -16.5t-7 -15.5q-13 -14 -29 -3l-3 3l-109 108q-2 2 -3 5l-2 6l-1 2v1h-1q-1 4 -1 8q0 3 0.5 6t2 6t4.5 5l112 112q7 7 16.5 7t16.5 -7q14 -14 2 -30q-1 -2 -2 -3l-74 -74h195q6 0 11 -3t8 -8t3 -11q-4 -19 -22 -23z
M415 115l74 -74v195q0 10 7 16.5t16 6.5t16 -6.5t7 -16.5v-198l75 75q6 6 15.5 6t16.5 -6.5t7 -16t-7 -15.5l-109 -109q-4 -4 -10 -6q-6 -3 -11 -3h-1q-3 0 -6 0.5t-6 2.5t-5 4l-112 112q-7 7 -7 17t7 16.5t16.5 6.5t16.5 -7z" />
    <glyph glyph-name="uniE628" unicode="&#xe628;" 
d="M940 444l-120 -106q-20 -18 -46 -7v-4v-273q0 -18 -9.5 -34t-25 -25t-34.5 -9h-386q-19 0 -34.5 9t-25 25t-9.5 34v273v5q-26 -12 -48 7l-118 106q-9 8 -13 19.5t-1.5 23.5t10.5 21l224 261q1 2 3 4l4 2q2 2 4 3l4 2v1h46q5 -57 47 -96.5t100 -39.5q38 0 70.5 18t53 49
t23.5 69h46v-2q3 -1 13 -12l226 -260q12 -14 11 -33t-15 -31zM905 499l-207 234q-16 -58 -64.5 -95t-110.5 -37h-22q-63 0 -112 38t-64 98l-206 -237q-6 -7 -5.5 -16.5t7.5 -15.5l99 -90q4 -4 9.5 -5t11 0.5t9.5 5.5v40q0 6 3 11t8.5 8t11.5 3q5 0 9 -1.5t7 -4.5t4 -7l3 -9
v-41v-51v-45v-205q0 -12 6 -22.5t16.5 -16.5t22.5 -6h342q19 0 32 13t13 32v205v45v47v45l2 7q5 15 21 15q9 0 16 -6.5t7 -15.5v-42q3 -3 6.5 -4t7.5 -1t7.5 1.5t6.5 3.5l101 89q7 7 7.5 16.5t-5.5 16.5z" />
    <glyph glyph-name="uniE629" unicode="&#xe629;" 
d="M903.5 3.5q-6.5 -6.5 -16 -6.5t-16.5 6l-160 162q-103 -99 -244 -99q-96 0 -177.5 47t-128.5 128.5t-47 177.5t47 177t128.5 128t177.5 47q71 0 136.5 -27.5t113 -75t75 -113t27.5 -136.5q0 -124 -77 -221l161 -163q7 -6 7 -15.5t-6.5 -16zM467 726q-50 0 -97 -15.5
t-85 -44t-66.5 -66.5t-44 -84.5t-15.5 -96.5q0 -128 90 -218t217.5 -90t217.5 90t90 218q0 127 -91 218q-90 88 -216 89z" />
    <glyph glyph-name="uniE62A" unicode="&#xe62a;" 
d="M903.5 3.5q-6.5 -6.5 -16 -6.5t-16.5 6l-160 162q-103 -99 -244 -99q-96 0 -177.5 47t-128.5 128.5t-47 177.5t47 177t128.5 128t177.5 47q71 0 136.5 -27.5t113 -75t75 -113t27.5 -136.5q0 -124 -77 -221l161 -163q7 -6 7 -15.5t-6.5 -16zM774 419q0 36 -8 70.5
t-23.5 64.5t-36.5 56.5t-47.5 47.5t-56.5 36.5t-64.5 23.5t-70.5 8q-84 0 -154.5 -41t-112 -112t-41.5 -154q0 -128 90 -218t217.5 -90t217.5 90t90 218zM615 385h-160q-6 0 -11 3t-8 8t-3 11v182q0 10 6.5 16.5t16 6.5t16 -6.5t6.5 -16.5v-159h137q6 0 11 -3t8 -8.5
t3 -11.5t-3 -11t-8 -8t-11 -3z" />
    <glyph glyph-name="uniE62B" unicode="&#xe62b;" 
d="M512 -37q-114 0 -211 56.5t-153.5 153.5t-56.5 211t56.5 211t153.5 153.5t211 56.5t211 -56.5t153.5 -153.5t56.5 -211t-56.5 -211t-153.5 -153.5t-211 -56.5zM512 759q-51 0 -99.5 -13t-90 -37.5t-76 -59t-58.5 -76t-37.5 -90t-13.5 -99.5q0 -102 50 -188.5
t136.5 -136.5t188.5 -50q61 0 118.5 18.5t103.5 53.5t81 81t53.5 103.5t18.5 118.5q0 102 -50 188.5t-136.5 136.5t-188.5 50zM794 339q-13 -79 -82 -151q-84 -88 -189 -88h-22q-55 0 -104.5 23.5t-83 60t-55 77t-28.5 78.5l-2 11v45q0 5 1.5 9t4.5 7.5t7.5 5t8.5 1.5h524
q9 0 15.5 -6.5t6.5 -16.5v-45q0 -3 -0.5 -5.5t-1.5 -5.5zM274 373q2 -35 20.5 -74t48.5 -73.5t75 -57.5t94 -23q47 0 91.5 23t75 57.5t50 74t21.5 73.5h-476zM722 487l-137 44q-5 1 -9.5 5.5t-6 11t-0.5 12.5q3 10 11 15t17 2l137 -43q3 -1 5.5 -2.5t4.5 -4t3.5 -5t2.5 -5.5
t1 -6t-1 -7q-2 -9 -10.5 -14t-17.5 -3zM438 533l-138 -41q-9 -2 -17 2.5t-10 13.5q-2 6 -0.5 12t6 10.5t10.5 5.5l137 41q9 2 17 -2.5t11 -13.5q1 -5 0.5 -9.5t-3 -8t-6 -6.5t-7.5 -4z" />
    <glyph glyph-name="uniE62C" unicode="&#xe62c;" 
d="M283 -26q-11 0 -20 7q-18 13 -15 36l36 251l-183 176q-16 16 -9 37.5t28 24.5l250 38l109 229q5 10 13.5 15.5t18.5 5.5t18.5 -5.5t13.5 -14.5l111 -228l249 -35q22 -3 29 -24.5t-9 -37.5l-180 -179l33 -248q1 -4 1 -9q0 -9 -4.5 -17.5t-12.5 -13.5t-18 -5q-9 0 -16 4
l-211 117l-215 -119q-4 -2 -8 -3.5t-9 -1.5zM136 467l180 -164q14 -13 11 -33l-34 -245l203 113q19 11 35 3l198 -116l-28 242q-4 19 10 33l174 168l-244 39q-19 3 -28 20l-103 213l-94 -216q-4 -9 -11.5 -14.5t-16.5 -6.5z" />
    <glyph glyph-name="uniE62D" unicode="&#xe62d;" 
d="M779 280q-7 -7 -16.5 -7t-15.5 7l-233 168l-235 -171q-7 -7 -17 -7t-17 7q-3 4 -4.5 8t-1.5 8.5t1.5 9t4.5 7.5l249 181q12 12 27 4q4 -1 7 -2.5t6 -3.5l245 -177q4 -4 5.5 -10t0 -12t-5.5 -10z" />
    <glyph glyph-name="uniE62E" unicode="&#xe62e;" 
d="M915 -19q-7 -7 -16 -7t-16 7l-250 253q-2 2 -4 4.5t-4 5.5v-226q0 -7 -3 -12t-8 -8t-11 -3q-10 0 -16.5 6.5t-6.5 16.5v253v22q0 10 6.5 16.5t16.5 6.5h272q10 0 16.5 -6.5t6.5 -16.5q0 -3 -1 -6t-2.5 -5.5t-3.5 -4.5t-4.5 -3.5t-5.5 -2.5t-6 -1h-214l254 -257
q7 -6 7 -15.5t-7 -16.5zM876 407q-10 0 -16.5 6.5t-6.5 16.5v114v136q0 8 -2.5 14.5t-6.5 12.5t-9.5 10t-12.5 6.5t-15 2.5h-182h-45h-23q-6 0 -11.5 3t-8.5 8t-3 11q0 10 7 16.5t16 6.5h68h205q19 0 34.5 -9t24.5 -25t9 -34v-159v-114q0 -19 -17 -22q-3 -1 -5 -1zM466 -2
h-91h-182q-14 0 -26.5 5t-21.5 14.5t-14.5 22t-5.5 26.5v136v23v114q0 6 3 11.5t8 8.5t12 3q9 0 15.5 -7t6.5 -16v-114v-23v-113q0 -8 2.5 -15t6.5 -12.5t10 -9.5t12.5 -6.5t14.5 -2.5h159h46h45q6 0 11.5 -3t8.5 -8.5t3 -11.5q0 -3 -1 -6t-2.5 -5.5t-3.5 -4.5t-4.5 -3.5
t-5.5 -2t-6 -0.5zM421 453h-272q-10 0 -16.5 6.5t-6.5 16t6.5 16t16.5 6.5h213l-253 257q-7 6 -7 15.5t7 16.5t16 7t16 -7l250 -253q1 -1 3 -3.5t4 -5.5v225q0 10 6.5 16.5t16 6.5t16 -6.5t6.5 -16.5v-274q0 -10 -6.5 -16.5t-15.5 -6.5z" />
    <glyph glyph-name="uniE62F" unicode="&#xe62f;" 
d="M887 599v-45v-45v-478q0 -29 -20 -49t-48 -20h-614q-28 0 -48 20t-20 49v705q0 28 20 48t48 20h387h45h38q14 5 23 -5l183 -183q4 -3 5.5 -7.5t0.5 -9.5zM660 531q-10 0 -16.5 7t-6.5 16v205h-45h-364q-19 0 -32.5 -13.5t-13.5 -32.5v-660q0 -9 3.5 -17.5t9.5 -14.5
t14.5 -9.5t18.5 -3.5h568q19 0 32.5 13.5t13.5 31.5v456v22h-182zM683 750v-173h159v14zM728 167h-432q-6 0 -11.5 3t-8.5 8.5t-3 11.5q0 9 6.5 16t16.5 7h432q10 0 16.5 -7t6.5 -16t-6.5 -16t-16.5 -7zM728 304h-432q-5 0 -9 1.5t-7 4.5t-5 7.5t-2 8.5q0 10 6.5 16.5
t16.5 6.5h432q6 0 11.5 -3t8.5 -8t3 -12q0 -9 -6.5 -15.5t-16.5 -6.5zM728 440h-432q-6 0 -11.5 3t-8.5 8.5t-3 11.5q0 4 1 7.5t3.5 6t5 4.5t6 3.5t7.5 1.5h432q6 0 11.5 -3t8.5 -8.5t3 -11.5q0 -9 -6.5 -16t-16.5 -7zM546 577h-250q-6 0 -11.5 3t-8.5 8t-3 12q0 9 6.5 15.5
t16.5 6.5h250q10 0 16.5 -6.5t6.5 -16t-6.5 -16t-16.5 -6.5z" />
    <glyph glyph-name="uniE630" unicode="&#xe630;" 
d="M933 168h-114v-114q0 -9 -6.5 -16t-16.5 -7q-6 0 -11 3t-8 8.5t-3 11.5v114h-114q-10 0 -16.5 6.5t-6.5 16t6.5 16t16.5 6.5h114v114q0 10 6.5 16.5t16 6.5t16 -6.5t6.5 -16.5v-114h114q9 0 16 -6.5t7 -16t-7 -16t-16 -6.5zM774 577q0 19 -13.5 32.5t-32.5 13.5h-250h-23
h-45v23q0 19 -13.5 32t-32.5 13h-205q-19 0 -32 -13t-13 -32v-69v-45v-64v-95v-251q0 -12 6 -22.5t16.5 -16.5t22.5 -6h433v-46h-455q-29 0 -49 20t-20 49v432v68v68q0 29 20 49t49 20h250q18 0 34 -9.5t25 -25t9 -34.5h296q28 0 48 -20t20 -48v-136h-45v113z" />
    <glyph glyph-name="uniE631" unicode="&#xe631;" 
d="M432 109h-22h-46h-159q-8 0 -15 2.5t-12.5 6.5t-9.5 10t-6.5 13t-2.5 14v410h683v-23v-23q0 -9 6.5 -16t16 -7t16 7t6.5 16v23v23v136q0 28 -20 48t-48 20h-637q-11 0 -21.5 -3.5t-19 -9.5t-14.5 -14.5t-9.5 -19t-3.5 -21.5v-569q0 -28 20 -48t48 -20h182h46h22q5 0 9 2
t7.5 5t5 7t1.5 9q0 9 -6.5 15.5t-16.5 6.5zM159 678q0 19 13.5 32.5t32.5 13.5h591q19 0 32.5 -13.5t13.5 -32.5v-68h-683v68zM887 428h-273q-6 0 -11 -3t-8 -8.5t-3 -11.5q0 -9 6.5 -15.5t15.5 -6.5h216q-4 -3 -5 -4l-319 -342q-7 -6 -7 -15.5t7 -16t16.5 -6.5t15.5 6
l319 342q6 5 8 8v1v-1v-223q0 -4 1 -7t3 -6t5 -5t6.5 -3.5t6.5 -1.5q10 0 16.5 7t6.5 16v273q0 10 -6.5 16.5t-16.5 6.5z" />
    <glyph glyph-name="uniE632" unicode="&#xe632;" 
d="M649 191h-365q-9 0 -15.5 6.5t-6.5 16t6.5 16t15.5 6.5h365q6 0 11 -3t8 -8t3 -12q0 -9 -6.5 -15.5t-15.5 -6.5zM649 304h-365q-9 0 -15.5 7t-6.5 16q0 6 3 11.5t8 8.5t11 3h365q9 0 15.5 -6.5t6.5 -16t-6.5 -16.5t-15.5 -7zM375 532q-9 0 -15.5 6.5t-6.5 16t6.5 16
t15.5 6.5h183q9 0 15.5 -6.5t6.5 -15.5q0 -7 -3 -12t-8 -8t-11 -3h-183zM671 441q0 -10 -6.5 -16.5t-15.5 -6.5h-365q-3 0 -6.5 1t-6.5 3.5t-5 5t-3 6t-1 7.5q0 9 6.5 16t15.5 7h365q6 0 11 -3t8 -8.5t3 -11.5zM853 31h-682q-19 0 -34.5 9.5t-25 25t-9.5 34.5v568
q0 29 20 49t49 20h341h205h68q7 0 14 -2.5t13 -6.5t10 -9.5t6.5 -12.5t2.5 -15v-318v-75v-130q0 -10 -7 -16.5t-16 -6.5q-6 0 -11.5 3t-8.5 8.5t-3 11.5v136v69v273q0 19 -13.5 32t-31.5 13h-274h-68h-205q-18 0 -31.5 -13t-13.5 -32v-524q0 -12 6 -22.5t16.5 -16.5t22.5 -6
h569h46h23q9 0 17.5 3.5t14.5 9.5t9.5 14.5t3.5 17.5v524q0 9 6.5 15.5t16.5 6.5q6 0 11.5 -3t8.5 -8t3 -11v-524v-22q0 -12 -3.5 -22t-10 -18.5t-15 -15t-19 -10t-21.5 -3.5z" />
    <glyph glyph-name="uniE633" unicode="&#xe633;" 
d="M931 84l-44 44v152q-17 12 -37.5 18t-41.5 6q-40 0 -76 -21l-33 33q24 16 51.5 25t57.5 9q21 0 41 -5t38 -14v314q0 8 -2 15t-6.5 12.5t-10 9.5t-12.5 6.5t-14 2.5h-518l-45 45h586q28 0 48 -20t20 -48v-365v-68v-136q0 -3 -0.5 -7t-1.5 -8zM705 577q19 0 32.5 -13
t13.5 -32q0 -8 -2.5 -15t-6.5 -12.5t-9.5 -9.5t-12.5 -6.5t-15 -2.5q-9 0 -17.5 3.5t-14.5 10t-9.5 14.5t-3.5 18q0 6 1.5 12t4.5 11t7 9t9 7t11 4.5t12 1.5zM904 -6q-7 -7 -16 -7t-16 7l-752 748q-6 7 -6 16t6.5 16t16 7t16.5 -7l751 -748q7 -7 7 -16t-7 -16zM137 326
q97 69 216 69h3h3l50 -50q-29 5 -56 5q-123 0 -216 -82v-146q0 -9 3.5 -17.5t9.5 -14.5t14.5 -9.5t17.5 -3.5h495l46 -46h-41h-523q-14 0 -26.5 5.5t-21.5 14.5t-14.5 21.5t-5.5 26.5v121v69v374l46 -46v-291z" />
    <glyph glyph-name="uniE634" unicode="&#xe634;" 
d="M931 84l-44 44v517q0 8 -2 15t-6.5 12.5t-10 9.5t-12.5 6.5t-14 2.5h-518l-45 45h586q28 0 48 -20t20 -48v-569q0 -3 -0.5 -7t-1.5 -8zM592 449v174q0 4 1.5 8.5t4.5 7.5t7.5 4.5t8.5 1.5t7 -1t6 -3q6 1 11 2t10.5 1.5t11.5 0.5q66 0 112.5 -46.5t46.5 -112.5
q0 -21 -5.5 -41t-15.5 -37.5t-24 -32t-31 -25t-37 -16.5l-39 39q30 2 54 17.5t38.5 41t14.5 54.5q0 47 -33.5 80.5t-80.5 33.5q-11 0 -23 -2v-195zM904 -6q-7 -7 -16 -7t-16 7l-752 748q-6 7 -6 16t6.5 16t16 7t16.5 -7l751 -748q7 -7 7 -16t-7 -16zM444 144l-29 70
q-4 -1 -5 -1h-137h-1l-29 -69q-4 -9 -12.5 -12.5t-17.5 0t-12.5 12.5t0.5 17l114 274l100 -99l71 -175q3 -6 2 -11.5t-4.5 -10.5t-9.5 -7q-9 -4 -17.5 -0.5t-12.5 12.5zM345 387l-54 -128h106zM137 122q0 -12 6 -22.5t16.5 -16.5t22.5 -6h495l46 -46h-564q-14 0 -26.5 5.5
t-21.5 14.5t-14.5 21.5t-5.5 26.5v564l46 -46v-495z" />
    <glyph glyph-name="uniE635" unicode="&#xe635;" 
d="M899 361h-46q-9 0 -15.5 7t-6.5 16q0 6 3 11.5t8 8.5t11 3h46q9 0 16 -7t7 -16q0 -18 -18 -22q-3 -1 -5 -1zM770 94l-24 24q-7 7 -7 16.5t6.5 16t16 6.5t16.5 -7l24 -24q3 -3 4.5 -6t2 -6.5t0 -7t-2 -7t-4.5 -5.5q-4 -5 -10 -6.5t-12 0t-10 6.5zM777 617q-6 -6 -15.5 -6
t-16 6.5t-6.5 16t6 15.5l25 25q2 2 5.5 4t7 2.5t7 0t6.5 -2.5l6 -4q6 -7 6 -16.5t-6 -15.5zM512 111q-113 0 -193 80t-80 193t80 193t193 80q56 0 106.5 -21.5t87 -58t58 -87t21.5 -106.5q0 -22 -3.5 -44t-10.5 -42t-16.5 -39.5t-22 -36t-27.5 -31.5t-32 -27.5t-36 -22
t-39 -16.5t-42 -10.5t-44 -3.5zM512 610q-61 0 -113 -30.5t-82.5 -82.5t-30.5 -113q0 -93 66.5 -159.5t159.5 -66.5t159.5 66.5t66.5 159.5t-66.5 159.5t-159.5 66.5zM512 703q-6 0 -11.5 3t-8.5 8t-3 11v46q0 6 3 11.5t8.5 8.5t11.5 3t11.5 -3t8.5 -8.5t3 -11.5v-46
q0 -9 -7 -15.5t-16 -6.5zM247 617l-25 24q-6 7 -6 16.5t6.5 16t16 6.5t16.5 -6l24 -25q6 -6 6 -15.5t-6.5 -16t-16 -6.5t-15.5 6zM171 361h-46q-9 0 -16 7t-7 16q0 6 3 11.5t8.5 8.5t11.5 3h46q9 0 15.5 -7t6.5 -16t-6.5 -16t-15.5 -7zM247 152q7 6 16.5 6t16.5 -6
q4 -5 5.5 -11t0 -11.5t-5.5 -10.5l-25 -24q-6 -6 -15.5 -6t-16 6.5t-6.5 16t6 15.5zM512 65q6 0 11.5 -3t8.5 -8t3 -11v-46q0 -4 -2 -8.5t-5 -7.5t-7 -5t-9 -2q-9 0 -16 7t-7 16v46q0 9 7 15.5t16 6.5z" />
    <glyph glyph-name="uniE636" unicode="&#xe636;" 
d="M865 -3h-50q1 4 2 7.5t1.5 7.5t0.5 8v182v45q0 10 -6.5 16.5t-16 6.5t-16 -6.5t-6.5 -16.5v-45v-182q0 -7 -2.5 -12t-6.5 -7t-9 -3t-13 -1h-15h-432h-15q-16 0 -23.5 4.5t-7.5 18.5v182v45q0 10 -6.5 16.5t-16 6.5t-16 -6.5t-6.5 -16.5v-45v-182q0 -11 4 -23h-50
q-9 0 -15.5 -6.5t-6.5 -16t6.5 -16t15.5 -6.5h114h478h114q9 0 15.5 6.5t6.5 15.5q-4 19 -22 23zM523 316q19 0 32.5 13t13.5 32v23q0 19 -13.5 32.5t-32.5 13.5h-22q-19 0 -32.5 -13.5t-13.5 -32.5v-23q0 -19 13.5 -32t32.5 -13h22zM484 708h26v-9h-26v9zM112 336z
M92 336.5q0 8.5 6 14.5t14.5 6t14.5 -6t6 -14.5t-6 -14.5t-14.5 -6t-14.5 6t-6 14.5zM912 336zM891 336q0 6 3 10.5t7.5 7.5t10.5 3q8 0 14 -6t6 -15q0 -5 -2.5 -10t-7.5 -7.5t-10 -2.5q-9 0 -15 6t-6 14zM32 338.5q0 9.5 7 16t16.5 6.5t16.5 -6.5t7 -16t-7 -16t-16.5 -6.5
t-16.5 6.5t-7 16zM950 338.5q0 9.5 7 16t16.5 6.5t16.5 -6.5t7 -16.5q0 -17 -17 -21q-4 -1 -7 -1q-9 0 -16 6.5t-7 16zM512 816q-14 0 -24 -10t-10 -24v-45l-376 -376h-34h-12v-45h56l18 9l116 114l263 258l1 1l2 2v0v116zM969 361h-13h-34l-376 376v45q0 14 -10 24t-24 10
v-116h1q0 -2 2 -3l263 -258l116 -114l18 -9h57v45z" />
    <glyph glyph-name="uniE637" unicode="&#xe637;" 
d="M512 -48q-117 0 -217 57.5t-157.5 157.5t-57.5 217t57.5 217t157.5 157.5t217 57.5t217 -57.5t157.5 -157.5t57.5 -217t-57.5 -217t-157.5 -157.5t-217 -57.5zM512 771q-79 0 -150.5 -30.5t-123.5 -82.5t-82.5 -123.5t-30.5 -150.5q0 -105 52 -194t141 -141t194 -52
t194 52t141 141t52 194q0 79 -30.5 150.5t-82.5 123.5t-123.5 82.5t-150.5 30.5zM580 247q-6 0 -11 3.5t-8 8.5t-3 11v251q0 4 1.5 8.5t4.5 7.5t7.5 4.5t8.5 1.5q6 0 11.5 -3t8.5 -8t3 -11v-251q0 -3 -1 -6t-2.5 -5.5t-3.5 -4.5t-4.5 -3.5t-5.5 -2.5t-6 -1zM421 247
q-5 0 -9 2t-7 5t-5 7.5t-2 8.5v251q0 4 2 8.5t5 7.5t7 4.5t9 1.5q9 0 16 -6.5t7 -15.5v-251q0 -9 -7 -16t-16 -7z" />
    <glyph glyph-name="uniE638" unicode="&#xe638;" 
d="M785 350q-14 0 -24 10t-10 24t10 24t24 10t24 -10t10 -24t-10 -24t-24 -10zM512 350q-14 0 -24 10t-10 24t10 24t24 10t24 -10t10 -24t-10 -24t-24 -10zM239 350q-14 0 -24 10t-10 24t10 24t24 10t24 -10t10 -24t-10 -24t-24 -10z" />
    <glyph glyph-name="uniE639" unicode="&#xe639;" 
d="M130 439zM107 438.5q0 9.5 6.5 16t16 6.5t16 -6.5t6.5 -16t-6.5 -16t-16 -6.5t-16 6.5t-6.5 16zM152 439q14 86 64.5 156.5t128.5 111.5t167 41q99 0 183 -49.5t132 -132.5h-110q-10 0 -16.5 -6.5t-6.5 -16.5q0 -6 3 -11t8.5 -8t11.5 -3h132h-8h12h23q4 0 8 1q3 1 6 4
l4 4q1 2 2 3t1 3q1 2 1.5 3.5t0.5 3.5v160q0 9 -6.5 15.5t-16 6.5t-16.5 -6.5t-7 -15.5v-94q-56 85 -146 135t-195 50q-101 0 -189 -46.5t-144.5 -126.5t-71.5 -178v-1v-1zM898 352zM876 352q0 9 6.5 15.5t15.5 6.5t15 -6.5t6 -15.5q-4 -18 -21 -22q-9 0 -15.5 6.5
t-6.5 15.5zM875 352q-12 -140 -116.5 -236t-246.5 -96q-106 0 -194 56t-133 149h99q7 0 12 3t8 8t3 11q0 4 -1 7.5t-3 6.5t-5 5t-6.5 3t-7.5 1h-159q-6 0 -11.5 -3t-8.5 -8t-3 -12v-159q0 -4 2 -8.5t5 -7.5t7.5 -5t8.5 -2q10 0 16.5 7t6.5 16v109q52 -101 149.5 -162
t214.5 -61q243 0 351 199q49 90 56 179h-44z" />
    <glyph glyph-name="uniE63A" unicode="&#xe63a;" 
d="M298 645q-11 12 -25 12q-9 0 -17 -4.5t-12.5 -12.5t-4.5 -17q0 -8 3.5 -14.5t9.5 -11.5l2 -1q9 -7 19 -7q7 0 13 2.5t11 7t7.5 11t2.5 13.5q0 10 -7 19zM857 355l-375 374l-4 3q-1 2 -3 3.5t-4 2.5t-4 2.5t-4.5 2t-4.5 1.5t-5 2q-1 0 -2 0.5t-2.5 1t-2.5 0.5h-1h-1h-3
q-7 1 -14 0h-256q-7 0 -12 -3t-8 -8t-3 -12v-22v-35v-199q-1 -7 0 -14v-3v-1v-1l1 -2q1 -4 1 -6l4 -10q2 -5 5.5 -9.5t7.5 -8.5l374 -375q20 -20 48.5 -20t48.5 20l219 219q13 13 17.5 30.5t0 35t-17.5 31.5zM817 272l-201 -192q-4 -4 -9.5 -7t-11 -4.5t-11.5 -1.5
t-11.5 1.5t-11 4.5t-9.5 7l-359 367v5v48v36v71v96h145h22h19h65h2q4 -1 5 0l366 -366q9 -9 12 -21t0 -23.5t-12 -20.5z" />
    <glyph glyph-name="uniE63B" unicode="&#xe63b;" 
d="M865 -60h-706q-14 0 -26.5 5.5t-21.5 14.5t-14.5 22t-5.5 27v432q0 18 9 34t25 25t34 9h706q28 0 48 -20t20 -48v-432q0 -29 -20 -49t-48 -20zM887 418q0 8 -2 14.5t-6.5 12.5t-10 10t-12.5 6.5t-14 2.5h-660q-19 0 -32 -13.5t-13 -32.5v-387q0 -5 1 -10t3 -9.5t5.5 -8.5
t7.5 -7t8.5 -5.5t9.5 -3.5t10 -1h660q19 0 32 13t13 32v387zM796 122q-4 0 -8.5 2t-7.5 5t-4.5 7t-1.5 9v159q0 4 1 7.5t3 6.5t5 5t6.5 3t6.5 1q7 0 12 -3t8 -8t3 -12v-159q0 -18 -18 -22q-3 -1 -5 -1zM887 737q0 7 -2 14t-6.5 12.5t-10 10t-12.5 6.5t-14 2h-341
q-8 0 -15 -2t-12.5 -6.5t-9.5 -10t-6.5 -12.5t-2.5 -14v-182h-45v204q0 29 20 49t48 20h387q14 0 26.5 -5.5t21.5 -14.5t14.5 -22t5.5 -27v-204h-46v182z" />
    <glyph glyph-name="uniE63C" unicode="&#xe63c;" 
d="M848 398q5 -13 5 -25v-319q0 -28 -20 -48t-48 -20h-546q-28 0 -48 20t-20 48v319q0 6 1 12.5t4 12.5q-11 3 -20.5 9t-16 14.5t-10.5 19.5t-4 23v113q0 29 20 49t48 20h264l-98 97q-6 7 -6 16.5t6.5 16t16 6.5t16.5 -6l113 -114q4 -3 5.5 -7t1.5 -9q0 10 7 16l113 114
q7 6 16.5 6t16 -6.5t6.5 -16t-6 -16.5l-98 -97h264q28 0 48 -20t20 -49v-113q0 -16 -6.5 -29.5t-18 -23t-26.5 -13.5zM762 31q19 0 32.5 13.5t13.5 32.5v273q0 19 -13.5 32t-32.5 13h-227v-364h227zM216 77q0 -19 13.5 -32.5t32.5 -13.5h227v364h-227q-19 0 -32.5 -13
t-13.5 -32v-273zM216 600q-7 0 -14 -2t-12.5 -6.5t-10 -10t-6.5 -12.5t-2 -14v-69q0 -12 6 -22.5t16.5 -16.5t22.5 -6h273v159h-273zM853 555q0 9 -3.5 17.5t-9.5 14.5t-14.5 9.5t-17.5 3.5h-273v-159h273q19 0 32 13t13 32v69z" />
    <glyph glyph-name="uniE63D" unicode="&#xe63d;" 
d="M831 782h-638q-18 0 -34 -9t-25 -24.5t-9 -34.5v-523q0 -29 20 -49t48 -20h137v-113q0 -5 2.5 -9.5t6 -8t8.5 -6t10 -2.5q12 -2 24 10l129 129h321q13 0 26 5.5t22 14.5t14.5 22t5.5 27v523q0 19 -9 34.5t-25 24.5t-34 9zM853 213q0 -9 -3.5 -17.5t-9.5 -14.5t-14.5 -9.5
t-17.5 -3.5h-312h-4q-1 -1 -8 -7l-109 -109v93q0 9 -6.5 16t-15.5 7h-137q-19 0 -32 13t-13 32v478q0 19 13 32.5t32 13.5h592q19 0 32 -13.5t13 -32.5v-478zM694 464zM649 463.5q0 18.5 13 32t32 13.5t32.5 -13.5t13.5 -32t-13.5 -32t-32.5 -13.5t-32 13.5t-13 32zM512 464
zM466 463.5q0 18.5 13.5 32t32.5 13.5t32.5 -13.5t13.5 -31.5q0 -10 -4 -18t-10 -14.5t-14.5 -10t-17.5 -3.5q-19 0 -32.5 13.5t-13.5 32zM330 464zM284 463.5q0 18.5 13.5 32t32.5 13.5t32 -13.5t13 -31.5q0 -31 -28 -43q-9 -3 -17 -3q-19 0 -32.5 13.5t-13.5 32z" />
    <glyph glyph-name="uniE63E" unicode="&#xe63e;" 
d="M853 361h-318v-318q0 -3 -0.5 -5.5t-2 -5t-3 -4.5t-3.5 -3.5t-4 -2.5t-4.5 -1.5t-5.5 -0.5q-6 0 -11.5 3t-8.5 8t-3 12v318h-318q-10 0 -16.5 7t-6.5 16t6.5 16t16.5 7h318v318q0 5 2 9t5 7t7 5t9 2q9 0 16 -6.5t7 -16.5v-318h318q10 0 16.5 -7t6.5 -16q0 -3 -0.5 -5.5
t-1.5 -4.5t-2.5 -4t-3.5 -3.5t-4.5 -3t-5 -2t-5.5 -0.5z" />
    <glyph glyph-name="uniE63F" unicode="&#xe63f;" 
d="M900 418h-136v132q0 10 -6.5 14.5t-9.5 5t-8 0.5q-4 0 -7.5 -1t-5.5 -2.5t-3.5 -2.5t-2.5 -4.5t-1.5 -5t-1 -5.5t-0.5 -5v-6v-6v-114h-136q-4 0 -7.5 -1t-6.5 -3t-5 -5t-3 -6.5t-1 -7.5q0 -9 6.5 -15.5t16.5 -6.5h136v-137q0 -9 6.5 -16t16.5 -7q6 0 11 3t8.5 8.5
t3.5 11.5v137h136q10 0 16.5 6.5t6.5 16t-6.5 16t-16.5 6.5zM735 13h6v-28h-6v28zM695 -25l7 -6q16 -15 32 1q6 5 7 11.5t0 11.5t0 12v12v14v23v1v67q0 10 -7 16.5t-16 6.5q-4 0 -7.5 -1t-6 -3t-4.5 -5t-3.5 -6.5t-1.5 -7.5v-58v-10v-20l-253 215l-4 5q-7 7 -16.5 7
t-15.5 -7l-257 -217v17v68v592q0 9 3.5 17.5t10 14.5t14.5 10t18 4h455q9 0 17.5 -4t14.5 -10t9.5 -14.5t3.5 -17.5v-10v-36q0 -6 3 -11t8.5 -8t11.5 -3q9 0 16 6.5t7 15.5v45v1v23q0 18 -9 34t-25 25t-34 9h-501q-14 0 -26.5 -5.5t-22 -14.5t-14.5 -21.5t-5 -26.5l-2 -706
v-3v-9q0 -5 -0.5 -11t-0.5 -12v-9v-2v-3l1 1q1 -8 6 -13q4 -5 10 -6.5t12 0t10 6.5l11 9l270 229l274 -233v0z" />
    <glyph glyph-name="uniE640" unicode="&#xe640;" 
d="M740 475zM705 475q0 14 10 24t25 10q3 0 6.5 -0.5t6.5 -2t5 -3.5l6 -4q2 -2 4 -5t3 -6l2 -6q1 -3 1 -7q0 -14 -10 -24t-24.5 -10t-24.5 10t-10 24zM671 407zM637 407q0 14 10 24t24 10t24 -10t10 -24t-10 -24t-24 -10q-5 0 -10.5 1.5t-9.5 4.5t-7 7.5t-5 9.5t-2 11z
M603 475zM569 475q0 14 10 24t24 10q4 0 7 -0.5t6 -2t6 -3.5t5 -4t4 -5t3.5 -6t2 -6t0.5 -7q0 -14 -10 -24t-24 -10t-24 10t-10 24zM848 749q-21 10 -37 11q2 -1 4 -1h-587q-57 0 -97 -40t-40 -96v-478q0 -56 40 -96t96.5 -40t96.5 40t40 96v23v23h296v-23v-23q0 -56 40 -96
t96.5 -40t96.5 40t40 96v478q0 15 -3 30.5t-11 35.5t-26.5 36.5t-44.5 23.5zM887 145q0 -38 -26.5 -64.5t-64 -26.5t-64.5 26.5t-27 64.5v23v23h23q6 0 11.5 3t8.5 8t3 11q0 10 -6.5 16.5t-16.5 6.5h-23h-2h-40h-3h-296h-3h-40h-2h-23q-10 0 -16.5 -6.5t-6.5 -16t6.5 -16
t16.5 -6.5h23v-23v-23q0 -25 -12.5 -46t-33.5 -33t-45 -12q-38 0 -64.5 26.5t-26.5 64.5v478q0 25 12 46t33 33t46 12h101h366h101q38 0 64.5 -26.5t26.5 -64.5v-478zM353 577q-43 0 -73 -30t-30 -72t30 -72t72.5 -30t72.5 30t30 72q0 28 -13.5 51.5t-37 37t-51.5 13.5z
M353 418q-24 0 -40.5 16.5t-16.5 40.5t16.5 40.5t40 16.5t40.5 -16.5t17 -40.5q0 -12 -4.5 -22.5t-12.5 -18t-18.5 -12t-21.5 -4.5zM671 543zM637 543q0 14 10 24t24 10t24 -10t10 -24t-10 -24t-24 -10q-7 0 -13 3t-10.5 7.5t-7.5 10.5t-3 13z" />
    <glyph glyph-name="uniE641" unicode="&#xe641;" 
d="M274 365q23 4 38 18t21.5 29t8.5 35t1 29.5t-2 20.5q-3 28 -31 57t-63 26q-19 -2 -33.5 -12.5t-22 -24.5t-12.5 -28t-6 -24l-1 -9q-5 -24 3.5 -53.5t34.5 -50.5t64 -13zM360 200q-8 -22 -3 -38q4 -15 14 -22t19 -7l8 1h46v91h-46q-10 -3 -18.5 -7.5t-13.5 -9.5t-6 -8z
M424 523q34 0 57.5 33t23.5 79.5t-23.5 79.5t-57.5 33t-57.5 -33t-23.5 -79.5t23.5 -79.5t57.5 -33zM617 516q21 -3 40 5.5t32 24.5t21.5 34.5t11.5 37.5q3 13 0 28t-10 28.5t-16.5 25t-21.5 19t-25 10.5q-12 3 -26 -2.5t-26 -16.5t-22.5 -24.5t-17 -28.5t-8.5 -28
q-5 -45 10.5 -76.5t57.5 -36.5zM763 238q-4 3 -10.5 8t-25.5 21t-36 32.5t-38 39.5t-36 44q-26 40 -59 56.5t-62 11.5t-53.5 -20.5t-37.5 -37.5q-16 -25 -38 -48t-39.5 -37.5t-19.5 -16.5q-1 -1 -14.5 -11t-26.5 -22t-28 -33t-19.5 -44t0.5 -54q18 -81 90 -103q12 -3 20 -4
q54 3 123 18q35 7 64 5.5t47 -5t18 -4.5q2 -1 5.5 -2t15 -3.5t23 -4.5t27.5 -3t31 -0.5t31 4.5t29 10.5t25 19t19 28.5q12 29 14 55t-4 43.5t-13.5 31t-14.5 19.5zM489 88h-114q-42 1 -60 42q-15 34 -8 72q4 12 10 22.5t12 17.5t13 12.5t12.5 8.5t10.5 4.5t8 2.5h2h69v69h45
v-251zM671 88h-114q-12 1 -21.5 5.5t-13.5 10.5t-7 13t-3 10v4v139h45v-113q2 -6 7.5 -11.5t10.5 -8.5l5 -3h46v136h45v-182zM854 436q0 11 -4.5 24.5t-14 29.5t-28.5 26.5t-44 10.5q-15 0 -27 -4t-20.5 -10t-14.5 -15t-9.5 -18.5t-5.5 -21t-3 -21t-1 -20.5q0 -16 1 -27.5
t6 -27t14.5 -25t27.5 -16t44 -6.5q14 1 25.5 4t19.5 10t14.5 13.5t9.5 17t5.5 17.5t3 18.5t1 16.5t0.5 14v10z" />
    <glyph glyph-name="uniE642" unicode="&#xe642;" 
d="M397 222h-1v1zM512 816q-117 0 -217 -57.5t-157.5 -157.5t-57.5 -217t57.5 -217t157.5 -157.5t217 -57.5t217 57.5t157.5 157.5t57.5 217q0 88 -34 168t-92 138t-138 92t-168 34zM512 -3q-105 0 -194 52t-141 141t-52 194t52 194t141 141t194 52q53 0 103 -14t92.5 -39
t78 -60.5t60.5 -78t39 -92.5t14 -103q0 -153 -104 -264q-102 -109 -250 -121q-17 -2 -33 -2zM699 408q3 -2 5 -4l2 -1l-7 5q-15 10 -60 36.5t-92 53t-85 47.5t-41 21q-10 0 -17 -9q-5 -4 -8 -14q0 -2 -0.5 -81.5t0 -158.5t1.5 -81q2 -9 12 -15t19 -4l4 2q2 1 4 3l264 151
q8 2 12.5 9t3.5 15q0 5 -2 10.5t-6 9.5t-9 5zM444 263v239l208 -119z" />
    <glyph glyph-name="uniE643" unicode="&#xe643;" 
d="M842 9h-660q-28 0 -48 20t-20 48v614q0 14 5.5 26.5t14.5 22t21.5 14.5t26.5 5h660q28 0 48 -20t20 -48v-614q0 -41 -36 -60q-16 -8 -32 -8zM865 668q0 10 -4 18.5t-10 14.5t-14.5 9.5t-17.5 3.5h-614q-8 0 -15 -2.5t-12.5 -6.5t-9.5 -9.5t-6.5 -12.5t-2.5 -15v-568
q0 -13 6 -23.5t16.5 -16.5t23.5 -6h614q19 0 32.5 13.5t13.5 32.5v568zM705 213q-9 0 -15.5 7t-6.5 16v296q0 6 3 11.5t8 8.5t11 3q10 0 16.5 -7t6.5 -16v-296q0 -18 -18 -22q-2 -1 -5 -1zM523 259q-4 0 -8.5 1.5t-7.5 5t-4.5 7.5t-1.5 9v45q0 10 6.5 16.5t16 6.5t16 -6.5
t6.5 -16.5v-45q0 -7 -3 -12t-8 -8t-12 -3zM523 418q-6 0 -11 3t-8 8.5t-3 11.5v45q0 10 6.5 16.5t16 6.5t16 -6.5t6.5 -16.5v-45q0 -10 -6.5 -16.5t-16.5 -6.5zM341.5 213q-9.5 0 -16 7t-6.5 16v296q0 9 6.5 16t16 7t16 -7t6.5 -16v-296q0 -9 -6.5 -16t-16 -7z" />
    <glyph glyph-name="uniE644" unicode="&#xe644;" 
d="M842 9h-660q-28 0 -48 20t-20 48v614q0 14 5.5 26.5t14.5 22t21.5 14.5t26.5 5h660q28 0 48 -20t20 -48v-614q0 -41 -36 -60q-16 -8 -32 -8zM865 668q0 10 -4 18.5t-10 14.5t-14.5 9.5t-17.5 3.5h-614q-8 0 -15 -2.5t-12.5 -6.5t-9.5 -9.5t-6.5 -12.5t-2.5 -15v-568
q0 -13 6 -23.5t16.5 -16.5t23.5 -6h614q19 0 32.5 13.5t13.5 32.5v568zM796 100h-113q-7 0 -12 3t-8 8t-3 11t3 11.5t8 8.5t12 3h91v91q0 6 3 11.5t8 8.5t11 3q10 0 16.5 -6.5t6.5 -16.5v-114q-5 -19 -23 -22zM796 509q-4 0 -8.5 2t-7.5 5t-4.5 7t-1.5 9v91h-91
q-10 0 -16.5 6.5t-6.5 16t6.5 16t16.5 6.5h113q7 0 12 -3t8 -8t3 -11v-114q0 -3 -0.5 -6t-2 -5.5t-4 -4.5t-5 -3.5t-5 -2.5t-6.5 -1zM341 100h-113q-5 0 -9.5 1.5t-7.5 4.5t-4.5 7.5t-1.5 8.5v114q0 10 6.5 16.5t16 6.5t16 -6.5t6.5 -16.5v-91h91q10 0 16.5 -6.5t6.5 -16
t-6.5 -16t-16.5 -6.5zM341 623h-91v-91q0 -5 -1.5 -9t-4.5 -7t-7.5 -5t-8.5 -2q-7 0 -12 3t-8 8.5t-3 11.5v114q0 6 3 11t8 8t12 3h113q10 0 16.5 -6.5t6.5 -15.5q0 -7 -3 -12t-8 -8t-12 -3z" />
    <glyph glyph-name="uniE645" unicode="&#xe645;" 
d="M865 759h-706q-28 0 -48 -20t-20 -48v-614q0 -28 20 -48t48 -20h706q28 0 48 20t20 48v614q0 14 -5.5 26.5t-14.5 22t-21.5 14.5t-26.5 5zM887 100q0 -10 -3.5 -18.5t-9.5 -14.5t-14.5 -9.5t-17.5 -3.5h-660q-19 0 -32 13.5t-13 32.5v568q0 19 13 32.5t32 13.5h660
q19 0 32 -13.5t13 -32.5v-568zM688 395l4 -2l-263 151l-42 -23l-1 4q-1 -3 -1 -159t1 -160q2 -9 10.5 -13.5t17.5 -2.5l3 2l7 4l264 152q18 5 17 23q1 19 -17 24zM432 252v239l209 -120zM386 525q0 5 2 9.5t5.5 8t8.5 5.5t10 2q7 0 12.5 -3t9 -9t3.5 -13q0 -11 -7.5 -18.5
t-17.5 -7.5q-5 0 -10 2t-8.5 5.5t-5.5 8.5t-2 10z" />
    <glyph glyph-name="uniE646" unicode="&#xe646;" 
d="M887 -37h-204v46h182q9 0 17.5 3.5t14.5 9.5t9.5 14.5t3.5 17.5v341q0 8 -2 15t-6.5 12.5t-10 9.5t-12.5 6.5t-14 2.5h-182v45h204q29 0 49 -20t20 -48v-387q0 -28 -20 -48t-49 -20zM569 -37h-432q-14 0 -27 5.5t-22 14.5t-14.5 21.5t-5.5 26.5v706q0 28 20 48t49 20h432
q14 0 26.5 -5.5t21.5 -14.5t14.5 -21.5t5.5 -26.5v-706q0 -28 -20 -48t-48 -20zM592 714q0 19 -13.5 32t-32.5 13h-387q-5 0 -10 -1t-9.5 -3t-8.5 -5.5t-7 -7.5t-5.5 -8.5t-3.5 -9.5t-1 -10v-660q0 -12 6 -22.5t16.5 -16.5t22.5 -6h387q19 0 32.5 13t13.5 32v660zM432 77
h-159q-9 0 -16 6.5t-7 16t7 16t16 6.5h159q5 0 9 -1.5t7.5 -4.5t5 -7.5t1.5 -8.5t-1 -7.5t-3 -6.5t-5 -5t-6.5 -3t-7.5 -1z" />
    <glyph glyph-name="uniE647" unicode="&#xe647;" 
d="M819 8h-614q-28 0 -48 20t-20 49v614q0 28 20 48t48 20h341h46h22q7 0 12 -3t8 -8t3 -12q0 -4 -1.5 -8.5t-5 -7.5t-7.5 -4.5t-9 -1.5h-22h-46h-318q-10 0 -18.5 -4t-14.5 -10t-9.5 -14.5t-3.5 -17.5v-569q0 -19 13.5 -32t32.5 -13h568q10 0 18.5 3.5t14.5 9.5t9.5 14.5
t3.5 17.5v364v42v4q0 9 6.5 16t16.5 7q4 0 8.5 -2t7.5 -5t4.5 -7t1.5 -9v-46v-386q0 -29 -20 -49t-48 -20zM448 310q-7 -7 -16.5 -7t-16 6.5t-6.5 16t6 16.5l409 411q7 7 16.5 7t16 -7t6.5 -16t-6 -16z" />
    <glyph glyph-name="uniE648" unicode="&#xe648;" 
d="M512 -48q-117 0 -217 57.5t-157.5 157.5t-57.5 217t57.5 217t157.5 157.5t217 57.5t217 -57.5t157.5 -157.5t57.5 -217t-57.5 -217t-157.5 -157.5t-217 -57.5zM874 247h-108q-17 -54 -47.5 -101t-72.5 -84t-92 -62q32 3 62 11.5t57.5 21t52.5 29.5t47 37t41 43.5t34 50
t26 54.5zM740 373q0 50 -13 102h-192v-182h196q3 13 5 26t3 26.5t1 27.5zM489 247h-179q25 -67 72.5 -124t107.5 -90zM489 293v182h-194q-11 -46 -11 -91q0 -9 0.5 -18.5t1.5 -18.5l2 -18l4 -18q1 -9 3 -18h194zM489 521v220q-63 -36 -110 -92.5t-71 -127.5h181zM713 521
q-26 70 -72 127t-106 92v-219h178zM535 247v-219q26 14 49 31.5t43.5 38.5t37.5 44.5t31 50t23 54.5h-184zM489 -2v8v-8q-77 33 -137 100t-90 149h-112q27 -69 76.5 -124t118 -87.5t144.5 -37.5zM137 476q-6 -23 -9 -45.5t-3 -46.5q0 -23 3 -45.5t8 -45.5h113q-10 46 -10 91
q0 15 1 30.5t3.5 30.5t5.5 30h-101q-9 0 -11 1zM150 521h111q25 76 81 142t126 106q-106 -15 -193.5 -83t-124.5 -165zM552 768q71 -36 125 -101.5t82 -145.5h115q-26 66 -73 119.5t-111.5 87t-137.5 40.5zM773 475q12 -51 12 -102q0 -39 -8 -80h111l4 22q2 11 3.5 22.5
t2.5 23t1 23.5q0 23 -3 45.5t-8 45.5h-115z" />
    <glyph glyph-name="uniE649" unicode="&#xe649;" 
d="M512 -48q-117 0 -217 57.5t-157.5 157.5t-57.5 217t57.5 217t157.5 157.5t217 57.5t217 -57.5t157.5 -157.5t57.5 -217t-57.5 -217t-157.5 -157.5t-217 -57.5zM512 771q-79 0 -150.5 -30.5t-123.5 -82.5t-82.5 -123.5t-30.5 -150.5q0 -105 52 -194t141 -141t194 -52
t194 52t141 141t52 194q0 79 -30.5 150.5t-82.5 123.5t-123.5 82.5t-150.5 30.5zM679 413l-144 144v-378q0 -9 -7 -16t-16 -7t-16 7t-7 16v380l-146 -144q-7 -7 -16 -7t-16 6.5t-7 16t7 16.5l185 183q7 7 16.5 7t15.5 -7q2 -2 3.5 -4t1.5 -4l177 -177q5 -4 6.5 -10t0 -12
t-6 -10t-10 -5.5t-11.5 0t-10 5.5z" />
    <glyph glyph-name="uniE64A" unicode="&#xe64a;" 
d="M269 262zM246 262q0 4 1.5 8.5t5 7.5t7.5 5t9 2t9 -2t7.5 -5t5 -7.5t1.5 -8.5q0 -10 -6.5 -17t-16.5 -7t-16.5 7t-6.5 17zM159 145v569q0 19 13.5 32t32.5 13h478q7 0 14 -2t12.5 -6.5t10 -10t6.5 -12.5t2 -14v-273h46v273q0 38 -27 64.5t-64 26.5h-478
q-38 0 -64.5 -26.5t-26.5 -64.5v-569q0 -38 26.5 -64.5t64.5 -26.5h318v46h-318q-19 0 -32.5 13t-13.5 32zM476 650q-5 13 -19 18v1q-6 2 -13 2l-1 -1h-2q-7 0 -9 -1t-3 -2l-2 -2q-10 -6 -14 -16l-161 -367q0 -1 -1 -2q-1 -2 -1 -3.5t-1 -3t-1 -3.5l41 -20q3 5 4 7l31 70
h199h46h7h12h6h-16h52zM344 373l101 232l111 -232h-212zM887 259h-113v114q0 6 -3 11t-8.5 8t-11.5 3t-11.5 -3t-8.5 -8t-3 -11v-114h-114q-6 0 -11 -3t-8 -8.5t-3 -11.5v-136q0 -10 6.5 -16.5t15.5 -6.5h114v-91q0 -10 6.5 -16.5t16 -6.5t16.5 6.5t7 16.5v91h113
q10 0 16.5 6.5t6.5 16.5v136q0 4 -1 7.5t-3 6t-5 5t-6.5 3.5t-7.5 1zM728 122h-68q-6 0 -11.5 3t-8.5 8.5t-3 11.5v46q0 9 6.5 15.5t16.5 6.5h68v-91zM865 145q0 -9 -7 -16t-16 -7h-68v91h68q9 0 16 -6.5t7 -15.5v-46z" />
    <glyph glyph-name="uniE64B" unicode="&#xe64b;" 
d="M785 -37h-546q-19 0 -34.5 9t-24.5 25t-9 34v706q0 28 20 48t48 20h546q28 0 48 -20t20 -48v-706q0 -28 -20 -48t-48 -20zM808 714q0 19 -13.5 32t-32.5 13h-500q-8 0 -15 -2t-12.5 -6.5t-9.5 -10t-6.5 -12.5t-2.5 -14v-660q0 -19 13.5 -32t32.5 -13h500q19 0 32.5 13
t13.5 32v660zM633 447l-121 121l-121 -120q-7 -7 -16.5 -7t-16 6.5t-6.5 16t7 16.5l137 137q6 7 15.5 7t16.5 -7v-1q1 0 1 -1l136 -136q5 -4 6.5 -10t0 -12t-6.5 -10q-6 -7 -15.5 -7t-16.5 7zM391 297l120 -120l121 121q4 3 8 4.5t8.5 1.5t8.5 -1.5t8 -4.5q6 -7 6 -16.5
t-6 -15.5l-137 -136v-2q-7 -6 -16.5 -6t-16.5 6l-136 137q-7 6 -7 15.5t6.5 16.5t16 7t16.5 -7z" />
    <glyph glyph-name="uniE64C" unicode="&#xe64c;" 
d="M910 464q-9 0 -16 6.5t-7 15.5v170l-318 -355q-2 -18 -15 -30t-31 -12q-7 0 -14.5 2.5t-13 7t-10 11t-6.5 13.5l-125 127q-2 -1 -4 -1t-4.5 -0.5t-4.5 -0.5h-3h-2l-4 2h-3l-153 -154q-7 -7 -16.5 -7t-16.5 7q-6 6 -6 14v-180q0 -10 3.5 -18.5t9.5 -14.5t14.5 -9.5
t17.5 -3.5h614q19 0 32.5 13.5t13.5 32.5v159v45v23q0 10 6.5 16.5t16.5 6.5q4 0 8.5 -2t7.5 -5t4.5 -7t1.5 -9v-23v-45v-182q0 -19 -9 -34.5t-24.5 -24.5t-34.5 -9h-660q-14 0 -26.5 5t-21.5 14.5t-14.5 22t-5.5 26.5v614q0 19 9 34.5t25 24.5t34 9h319h45h23q6 0 11.5 -3
t8.5 -8t3 -11q0 -4 -1 -7.5t-3.5 -6.5t-5 -5t-6 -3t-7.5 -1h-23h-45h-296q-7 0 -14 -2.5t-12.5 -6.5t-10 -9.5t-6.5 -12.5t-2 -15v-386q0 9 6 15l154 156q-1 6 -1 11q0 12 6 22.5t16.5 16.5t23 6t23 -6t16.5 -16.5t6 -22.5q0 -3 -0.5 -5.5t-1.5 -5.5l111 -112q13 9 27 9
q6 0 12 -1.5t11 -4.5l312 347h-175q-10 0 -16.5 7t-6.5 16t6.5 16t16.5 7h227q10 0 16.5 -7t6.5 -16v-228q0 -4 -2 -8.5t-5 -7.5t-7 -4.5t-9 -1.5z" />
    <glyph glyph-name="uniE64D" unicode="&#xe64d;" 
d="M842 361h-660q-9 0 -16 7t-7 16t7 16t16 7h660q9 0 16 -7t7 -16q0 -3 -0.5 -5.5t-2.5 -4.5l-2 -4l-4 -4l-4 -2q-2 -2 -4.5 -2.5t-5.5 -0.5zM842 612h-660q-6 0 -11.5 3t-8.5 8t-3 11q0 5 2 9t5 7t7 5t9 2h660q9 0 16 -6.5t7 -16.5q0 -4 -2 -8.5t-5 -7.5t-7 -4.5t-9 -1.5z
M182 156h660q9 0 16 -6.5t7 -15.5q0 -7 -3 -12t-8.5 -8t-11.5 -3h-660q-9 0 -16 6.5t-7 16t7 16t16 6.5z" />
    <glyph glyph-name="uniE64E" unicode="&#xe64e;" 
d="M512 805q-114 0 -211 -56.5t-153.5 -153.5t-56.5 -211t56.5 -211t153.5 -153.5t211 -56.5t211 56.5t153.5 153.5t56.5 211t-56.5 211t-153.5 153.5t-211 56.5zM512 9q-149 0 -257 102q-107 100 -118 246v27q0 102 50 188.5t136.5 136.5t188.5 50q76 0 145.5 -29.5
t120 -80t80 -120t29.5 -145.5t-29.5 -145.5t-80 -120t-120 -80t-145.5 -29.5zM614 464q-6 0 -11 3t-8 8t-3 11v91q0 7 3 12t8 8t11 3q10 0 16.5 -6.5t6.5 -16.5v-91q-5 -18 -23 -22zM410 464q-7 0 -12 3t-8 8t-3 11v91q0 10 6.5 16.5t16 6.5t16 -6.5t6.5 -16.5v-91
q0 -9 -6.5 -15.5t-15.5 -6.5zM728 351v27q0 4 -3 8t-8.5 6.5t-11.5 2.5q-9 0 -15.5 -6.5t-6.5 -15.5l-1 -25v2v-4v2q-4 -44 -27 -80t-61 -56.5t-82 -20.5q-69 0 -117 41t-52 107l-2 12v22q0 9 -6.5 15.5t-16 6.5t-16 -6.5t-6.5 -15.5l4 -61q8 -48 36 -86t71 -59.5t94 -21.5
h22q38 0 73 15.5t62 40.5t45.5 59t24.5 70v21z" />
    <glyph glyph-name="uniE64F" unicode="&#xe64f;" 
d="M796 -37h-568q-29 0 -49 20t-20 48v364q0 14 5.5 27t14.5 22t22 14.5t27 5.5v68q0 74 39 137t105 99.5t140 36.5q50 0 97.5 -17.5t84.5 -47.5t63 -72.5t35 -90.5h-46q-18 78 -84.5 130t-149.5 52q-31 0 -61.5 -8t-56.5 -22.5t-48.5 -35.5t-38.5 -46t-25 -54.5t-9 -60.5
v-68h410h68h45q29 0 49 -20t20 -49v-364q0 -28 -20 -48t-49 -20zM819 373q0 18 -13 31.5t-32 13.5h-23h-478h-23q-19 0 -32 -13.5t-13 -31.5v-319q0 -9 3.5 -17.5t9.5 -14.5t14.5 -9.5t17.5 -3.5h524q19 0 32 13t13 32v319zM512 145q-14 0 -24 10t-10 24v68q0 15 10 25
t24 10q9 0 17 -5t12.5 -12.5t4.5 -17.5v-68q0 -14 -10 -24t-24 -10z" />
    <glyph glyph-name="uniE650" unicode="&#xe650;" 
d="M512 -37q-114 0 -211 56.5t-153.5 153.5t-56.5 211t56.5 211t153.5 153.5t211 56.5t211 -56.5t153.5 -153.5t56.5 -211t-56.5 -211t-153.5 -153.5t-211 -56.5zM512 759q-149 0 -257 -102q-107 -100 -118 -246v-27q0 -102 50 -188.5t136.5 -136.5t188.5 -50
q76 0 145.5 29.5t120 80t80 120t29.5 145.5q0 51 -13.5 99.5t-37.5 90t-58.5 76t-76 58.5t-90 37.5t-99.5 13.5zM512 168q-14 0 -24 10t-10 24t10 24t24 10t24 -10t10 -24t-10 -24t-24 -10zM512 282q-14 0 -24 10t-10 24v273q0 14 10 24t24 10t24 -10t10 -24v-273
q0 -14 -10 -24t-24 -10z" />
    <glyph glyph-name="uniE651" unicode="&#xe651;" 
d="M899 361h-24q-8 -124 -90 -217l17 -17q6 -7 6 -16.5t-6.5 -16t-16 -6.5t-16.5 6l-17 17q-45 -39 -100.5 -62.5t-116.5 -27.5v-24q0 -3 -0.5 -5.5t-2.5 -4.5l-2 -4q-2 -2 -4 -3.5t-4 -2.5t-4.5 -2t-5.5 -1q-6 0 -11.5 3t-8.5 8.5t-3 11.5v24q-124 8 -217 90l-17 -16
q-6 -7 -15.5 -7t-16.5 7t-7 16.5t7 15.5l16 17q-82 93 -90 217h-24q-9 0 -16 7t-7 16t7 16t16 7h24q8 124 90 217l-17 17q-6 7 -6 16.5t6.5 16t16 6.5t16.5 -6l17 -17q29 26 63.5 45t73.5 30.5t80 14.5v24q0 9 7 16t16 7t16 -7t7 -16v-24q41 -3 80 -14.5t73.5 -30.5
t63.5 -45l17 17q5 4 11 5.5t11.5 0t10.5 -5.5q6 -7 6 -16.5t-6 -16.5l-17 -17q39 -45 62.5 -100.5t27.5 -116.5h24q9 0 16 -7t7 -16q0 -18 -18 -22q-3 -1 -5 -1zM512 703q-132 0 -225.5 -93.5t-93.5 -225.5q0 -130 91 -223q1 0 2 -0.5t2 -0.5l1 -2v-2q93 -91 223 -91
q132 0 225 94v0q29 29 50 64t32.5 76.5t11.5 84.5q0 132 -93.5 225.5t-225.5 93.5zM512 247q-28 0 -53 11t-43.5 29.5t-29.5 43.5t-11 53q0 57 40 97t97 40t97 -40t40 -97t-40 -97t-97 -40zM512 475q-19 0 -35.5 -7t-29 -19.5t-19.5 -29t-7 -35.5t7 -35.5t19.5 -29t29 -19.5
t35.5 -7q38 0 64.5 26.5t26.5 64.5q0 19 -7 35.5t-19.5 29t-29 19.5t-35.5 7z" />
    <glyph glyph-name="uniE652" unicode="&#xe652;" 
d="M956 361h-252q-8 -77 -66.5 -129.5t-137 -52.5t-136.5 52.5t-67 129.5h-229q-9 0 -15.5 7t-6.5 16t6.5 16t15.5 7h229q9 77 67 129.5t136.5 52.5t137 -52.5t66.5 -129.5h252q9 0 15.5 -7t6.5 -16t-6.5 -16t-15.5 -7zM501 543q-66 0 -113 -46.5t-47 -112.5q0 -43 21.5 -80
t58 -58t80.5 -21q66 0 112.5 46.5t46.5 112.5q0 78 -61 126q-44 33 -98 33z" />
    <glyph glyph-name="uniE653" unicode="&#xe653;" 
d="M831 134h-321l-129 -130q-9 -8 -21 -5q-4 -2 -7 -2q-10 0 -16.5 6.5t-6.5 16.5v114h-137q-28 0 -48 20t-20 48v501q0 28 20 48t48 20h638q28 0 48 -20t20 -48v-501q0 -28 -20 -48t-48 -20zM853 680q0 19 -13 32t-32 13h-592q-19 0 -32 -13t-13 -32v-455q0 -19 13 -32.5
t32 -13.5h137q9 0 15.5 -6.5t6.5 -16.5v-93l114 116v0h319q7 0 14 2.5t12.5 6.5t10 9.5t6.5 12.5t2 15v455zM717 361h-410q-4 0 -8.5 2t-7.5 5t-5 7t-2 9q0 9 7 16t16 7h410q4 0 8.5 -2t7.5 -5t5 -7t2 -9q0 -18 -18 -22q-3 -1 -5 -1zM717 521h-410q-6 0 -11 3t-8.5 8
t-3.5 11q0 10 7 16.5t16 6.5h410q4 0 8.5 -2t7.5 -5t5 -7t2 -9q-5 -19 -23 -22z" />
    <glyph glyph-name="uniE654" unicode="&#xe654;" 
d="M922 361q0 -4 -3 -9q-12 -156 -124 -264q-114 -109 -273 -113q-5 -1 -10 -1q-117 0 -214.5 61t-149.5 162v-86q0 -10 -6.5 -16.5t-16 -6.5t-16.5 6.5t-7 16.5v136q0 7 3 12t8.5 8t11.5 3q12 0 19 -10l25 3q38 -107 131.5 -175t211.5 -68q96 0 177.5 46t131 125t54.5 173
l2 1q1 8 7 13.5t15 5.5q14 0 20 -13h2v-2v-3v-1q1 -2 1 -4zM381 559q7 6 16.5 6t16.5 -6l97 -98l99 98q6 7 15.5 7t16.5 -6.5t7 -16t-7 -16.5l-97 -97h81q4 0 8.5 -2t7.5 -5t5 -7.5t2 -8.5q0 -6 -3.5 -11.5t-8.5 -8.5t-11 -3h-91v-68h91q4 0 8.5 -2t7.5 -5t5 -7t2 -9
q0 -6 -3.5 -11.5t-8.5 -8.5t-11 -3h-91v-91q0 -4 -2 -8.5t-5 -7.5t-7 -5t-9 -2t-9 2t-7 5t-5 7.5t-2 8.5v91h-91q-4 0 -8.5 2t-7.5 5t-5 7t-2 9t2 9t5 7t7.5 5t8.5 2h91v68h-91q-4 0 -8.5 2t-7.5 5t-5 7t-2 9q0 9 7 16t16 7h80l-97 97q-2 2 -3 4t-2 4.5t-1 4.5v6q0 2 1 4
t2 4.5t3 4.5zM130 442zM108 442q0 9 6.5 15.5t15.5 6.5q4 0 7.5 -1t6 -3t5 -5t3.5 -6.5t1 -6.5q0 -10 -6.5 -16.5t-16.5 -6.5q-3 0 -6.5 1t-6.5 3.5t-5 5t-3 6t-1 7.5zM136 259zM102 259q0 14 10 23.5t24 9.5q5 0 10 -1.5t9 -4.5t7.5 -7t5 -9.5t1.5 -10.5q0 -9 -4.5 -16.5
t-12 -12t-16.5 -4.5q-14 0 -24 9.5t-10 23.5zM870 543zM842 543q0 12 8.5 20t20 8t20 -8t8.5 -20t-8.5 -20.5t-20 -8.5t-20 8.5t-8.5 20.5zM899 547v133q0 4 -2 8.5t-5 7.5t-7 5t-9 2q-4 0 -7.5 -1.5t-6 -3.5t-4.5 -5t-3.5 -6t-1.5 -7v-70q-36 55 -88.5 96.5t-117.5 64.5
t-135 23q-153 0 -267.5 -100.5t-136.5 -249.5l44 -10q18 134 120.5 224t239.5 90q111 0 202 -61.5t133 -160.5z" />
    <glyph glyph-name="uniE655" unicode="&#xe655;" 
d="M876 177q0 -2 -0.5 -3t-0.5 -2l-2 -4q-2 -2 -2 -3q-2 -2 -5 -4v-1h-1l-2 -1l-1 -1l-338 -181q-2 -1 -4.5 -2t-5.5 -1h-4l-1 1h-1q-2 0 -6 2h-1h-1l-338 181l-1 1l-2 1l-1 1q-3 2 -4 4q-2 1 -4 4v1v1q-3 6 -2 13v400q-1 7 2 13v1v1l4 4l4 4v1h1l2 1l1 1l338 181h1q1 0 1 1
q4 1 6 1l1 1h1q4 0 7.5 -0.5t6.5 -2.5l338 -181l1 -1l2 -1h1l5 -5l2 -3l2 -4q0 -1 0.5 -2t0.5 -3v-1v-1v-410v-1v-1zM831 193v370l-296 -170v-358zM512 745l-318 -170v-382l295 -158v367v5q0 2 0.5 4t1.5 4v1l1 1q1 2 3 4l4 4q1 0 1 0.5t1 0.5l2 1v1l291 166z" />
    <glyph glyph-name="uniE656" unicode="&#xe656;" 
d="M876 361h-492l144 -144q4 -4 5.5 -10t0 -11.5t-5.5 -9.5q-2 -3 -5 -4.5t-5.5 -2t-5.5 -0.5t-6 0.5t-5.5 2t-4.5 4.5l-178 177q-3 2 -5 4q-4 4 -6 10t0 12t6 10l1 1v0l183 183q7 7 16 7t16 -7t7 -16t-7 -16l-144 -144h491q6 0 11.5 -3t8.5 -8.5t3 -11.5q0 -9 -6.5 -16
t-16.5 -7zM785.5 543q-9.5 0 -16.5 7t-7 16v46v68q0 7 -2 14t-6.5 12.5t-10 10t-12.5 6.5t-14 2h-501q-7 0 -14 -2t-12.5 -6.5t-10 -10t-6.5 -12.5t-2 -14v-592q0 -19 13 -32t32 -13h501q19 0 32 13t13 32v68v46q0 9 7 16t16 7q6 0 11.5 -3t8.5 -8.5t3 -11.5v-46v-91
q0 -28 -20 -48t-48 -20h-547q-28 0 -48 20t-20 48v638q0 18 9 34t25 25t34 9h547q28 0 48 -20t20 -48v-91v-46q0 -9 -6.5 -16t-16 -7z" />
    <glyph glyph-name="uniE657" unicode="&#xe657;" 
d="M916 102l-87 -86l-86 86q-18 18 -18 43.5t18 42.5q12 12 27.5 16t31.5 0t27 -16q6 6 13.5 10t15 6t15 2t15 -2t15 -6t13.5 -10q28 -28 13 -65q-5 -12 -13 -21zM864 707h-227q-21 0 -41.5 -7t-36.5 -19t-26 -29t-10 -36v-15v-395v-4v-9v-13v-16v-18v-16v-25
q13 21 50.5 27.5t85.5 5.5v-45q-42 0 -85 -12t-51 -34h-46q-8 21 -51 33t-85 12h-250v660h272q43 0 79.5 -20.5t57.5 -54.5q21 34 57.5 54.5t80.5 20.5h272v-455h-46v410zM477 615q0 16 -6 30.5t-17.5 25t-25.5 19t-31 12.5t-33 4h-228v-568h205q115 2 136 -34v25
q-1 37 0 77v395v14z" />
    <glyph glyph-name="uniE658" unicode="&#xe658;" 
d="M935 293h-47q3 15 5.5 29.5t4 30.5t1.5 31q0 105 -52 194t-141 141t-194 52t-194 -52t-141 -141t-52 -194t52 -194t141 -141t194 -52q83 0 159 35v-50q-37 -15 -77 -22.5t-82 -7.5q-117 0 -217 57.5t-157.5 157.5t-57.5 217q0 70 21.5 136t61.5 119.5t93.5 93.5
t119.5 61.5t136 21.5q117 0 217 -57.5t157.5 -157.5t57.5 -217q0 -45 -9 -91zM428 203l-3 -1q-6 -2 -11.5 -0.5t-10 6t-6.5 10.5v4q-1 4 -1 163t1 162t2.5 5.5t4.5 4.5q6 7 22 7q6 0 141 -77.5t138 -82.5l-5 2q17 -5 16 -23q1 -8 -3.5 -15t-12.5 -9l-264 -151q-4 -3 -8 -5z
M444 263l208 120l-208 119v-239zM818 184q18 18 43.5 18t43.5 -18q4 -4 7.5 -9t5.5 -10.5t3.5 -11.5t1.5 -11.5t-1.5 -11.5t-3.5 -11.5t-5.5 -10.5t-7.5 -10l-87 -86l-86 86q-18 18 -18 43.5t18 43t43.5 17.5t42.5 -18z" />
    <glyph glyph-name="uniE659" unicode="&#xe659;" 
d="M512 -35q-105 0 -194 51.5t-141 141t-52 194.5q0 109 56 200t149 141v-53q-73 -46 -116 -122.5t-43 -165.5q0 -93 45.5 -171.5t124 -124.5t171.5 -46t171.5 46t124 124.5t45.5 171.5q0 30 -5 59t-14.5 56t-23.5 52t-32 46.5t-39 40.5t-45 34v53q93 -50 149 -141t56 -200
q0 -105 -52 -194.5t-141 -141t-194 -51.5zM512 397q-6 0 -11.5 3t-8.5 8.5t-3 11.5v341q0 5 2 9t5 7.5t7 5t9 1.5q9 0 16 -6.5t7 -16.5v-341q0 -5 -2 -9t-5 -7t-7 -5t-9 -2z" />
    <glyph glyph-name="uniE65A" unicode="&#xe65a;" 
d="M842 -14h-228q-28 0 -48 20t-20 48v228q0 13 5.5 26t14.5 22t22 14.5t26 5.5h228q28 0 48 -20t20 -48v-228q0 -41 -36 -60q-16 -8 -32 -8zM865 259q0 9 -4 17.5t-10 14.5t-14.5 9.5t-17.5 3.5h-182q-12 0 -22.5 -6t-16.5 -16.5t-6 -22.5v-182q0 -19 13 -32.5t32 -13.5
h182q19 0 32.5 13.5t13.5 32.5v182zM842 418h-228q-28 0 -48 20t-20 48v228q0 18 9 34t25 25t34 9h228q28 0 48 -20t20 -48v-228q0 -18 -9 -34t-24.5 -25t-34.5 -9zM865 691q0 9 -4 17.5t-10 14.5t-14.5 10t-17.5 4h-182q-19 0 -32 -13.5t-13 -32.5v-182q0 -19 13 -32
t32 -13h182q9 0 17.5 3.5t14.5 9.5t10 14.5t4 17.5v182zM410 -14h-228q-19 0 -34.5 9t-24.5 25t-9 34v228q0 28 20 48t48 20h228q28 0 48 -20t20 -48v-228q0 -14 -5.5 -26.5t-14.5 -21.5t-22 -14.5t-26 -5.5zM432 259q0 19 -13 32t-32 13h-182q-13 0 -23.5 -6t-16.5 -16.5
t-6 -22.5v-182q0 -19 13.5 -32.5t32.5 -13.5h182q19 0 32 13.5t13 32.5v182zM410 418h-228q-28 0 -48 20t-20 48v228q0 28 20 48t48 20h228q28 0 48 -20t20 -48v-228q0 -28 -20 -48t-48 -20zM432 691q0 13 -6 23.5t-16.5 16.5t-22.5 6h-182q-19 0 -32.5 -13.5t-13.5 -32.5
v-182q0 -12 6 -22.5t16.5 -16.5t23.5 -6h182q19 0 32 13t13 32v182zM319 532h-46q-12 0 -22.5 6t-16.5 16.5t-6 22.5v46q0 9 3.5 17.5t9.5 14.5t14.5 9.5t17.5 3.5h46q7 0 14 -2t12.5 -6.5t9.5 -10t6.5 -12.5t2.5 -14v-46q0 -12 -6 -22.5t-16.5 -16.5t-22.5 -6z" />
    <glyph glyph-name="uniE65B" unicode="&#xe65b;" 
d="M865 9h-706q-14 0 -26.5 5t-21.5 14.5t-14.5 22t-5.5 26.5v614q0 28 20 48t48 20h706q28 0 48 -20t20 -48v-614q0 -28 -20 -48t-48 -20zM137 100q0 -10 3.5 -18.5t9.5 -14.5t14.5 -9.5t17.5 -3.5h660q19 0 32 13.5t13 32.5v409l-353 -180q-18 -8 -22 -6q-2 -1 -3.5 -1
t-3 0.5t-3.5 1.5t-3.5 2t-3.5 2l-4 2l-354 192v-422zM842 714h-660q-7 0 -14 -2.5t-12.5 -6.5t-10 -9.5t-6.5 -12.5t-2 -15l-6 -96q3 0 4 0.5t5 -1t5.5 -2.5t5 -3t4.5 -2l357 -194h2v-1l363 184l3 1l5 3q2 1 4.5 2t4.5 1l-7 108q0 8 -2 15t-6.5 12.5t-10 9.5t-12.5 6.5
t-14 2.5zM512 334zM499 333.5q0 5.5 4 9.5t9 4t9 -4t4 -9.5t-4 -9t-9 -3.5t-9 3.5t-4 9zM115 697h22v-204h-22v204zM887 719h17v-272h-17v272z" />
    <glyph glyph-name="uniE65C" unicode="&#xe65c;" 
d="M842 31h-660q-38 0 -64.5 27t-26.5 64v524q0 18 7 35t19.5 29t29.5 19.5t35 7.5h660q38 0 64.5 -27t26.5 -64v-524q0 -50 -43 -77q-23 -13 -48 -14zM182 77h660q19 0 32 13t13 32v92q-2 0 -5 -0.5t-6 -0.5h-728l-11 1v-92q0 -19 13 -32t32 -13zM842 691h-660
q-19 0 -32 -13t-13 -32v-365q5 1 11 1h728q6 0 11 -1v365q0 19 -13 32t-32 13z" />
    <glyph glyph-name="uniE65D" unicode="&#xe65d;" 
d="M899 511l-196 -196q-6 -6 -14.5 -9.5t-17 -3.5t-17 3.5t-15.5 9.5l-46 47l26 26l31 -32q5 -4 10.5 -5.5t11.5 0t11 5.5l177 177q6 7 6 16.5t-6 16.5l-168 166q-7 7 -16.5 7t-15.5 -7l-177 -177q-7 -7 -7 -16.5t7 -15.5l32 -33l-25 -25l-47 46q-13 13 -13 32t13 32
l196 196q13 14 32 14t32 -14l196 -196q6 -5 9 -11.5t4 -13.5t0 -14t-4 -13.5t-9 -11.5zM392 263q-7 7 -7 16.5t7 16.5l209 209q7 6 16.5 6t15.5 -6q3 -3 4.5 -6t2 -6.5t0 -7t-2 -7t-4.5 -6.5l-209 -209q-4 -4 -10 -5.5t-12 0t-10 5.5zM406 381l-33 32q-4 5 -10 6.5t-12 0
t-10 -6.5l-177 -177q-4 -4 -5.5 -10t0 -11.5t5.5 -10.5l168 -166q6 -7 15.5 -7t16.5 7l177 177q3 3 5 7.5t2 8.5t-2 8.5t-5 7.5l-32 31l25 25l47 -46q13 -13 13 -32t-13 -32l-196 -196q-13 -14 -32 -14t-32 14l-196 196q-9 8 -12 20t0 23.5t12 20.5l196 196q6 6 14.5 9.5
t17 3.5t17 -3.5t15.5 -9.5l46 -47z" />
    <glyph glyph-name="uniE65E" unicode="&#xe65e;" 
d="M796 -37h-568q-29 0 -49 20t-20 48v364q0 19 9.5 34.5t25 25t34.5 9.5v68q0 74 39 137t105 99.5t140 36.5q45 0 87.5 -14t78 -39t62.5 -58.5t41.5 -75.5t14.5 -86v-68q29 0 49 -20t20 -49v-364q0 -28 -20 -48t-49 -20zM512 759q-95 0 -167 -67t-72 -160v-68h478v68
q0 93 -72 160t-167 67zM819 373q0 18 -13 31.5t-32 13.5h-23h-478h-23q-19 0 -32 -13.5t-13 -31.5v-319q0 -9 3.5 -17.5t9.5 -14.5t14.5 -9.5t17.5 -3.5h524q19 0 32 13t13 32v319zM512 145q-14 0 -24 10t-10 24v68q0 15 10 25t24 10q9 0 17 -5t12.5 -12.5t4.5 -17.5v-68
q0 -14 -10 -24t-24 -10z" />
    <glyph glyph-name="uniE65F" unicode="&#xe65f;" 
d="M889 322l-71 -264q-1 -3 -3 -12t-3.5 -13t-4 -10t-6.5 -7.5t-9 -0.5q-14 4 -21 16t-3 26l71 264q3 13 15.5 20t25.5 4q6 -2 8.5 -2.5t3.5 -3t1 -3.5t-1.5 -6t-2.5 -8zM709 14q-6 -24 -23.5 -41t-40.5 -23.5t-47 -0.5l-374 100q-36 10 -55 42.5t-9 69.5l159 593
q6 24 23.5 41t40.5 23.5t47 0.5l374 -100q36 -10 55 -42.5t9 -69.5zM794 672l-371 112q-8 2 -15 1.5t-13.5 -3t-12 -7t-9.5 -10.5t-6 -13l-163 -621q-1 -10 -0.5 -16t7 -10.5t12.5 -7t17 -5.5l361 -100q19 -5 35 4.5t21 27.5l169 592q1 7 1 14.5t-3 14t-7 12t-10 9.5t-13 6z
M484 97l-88 24q-13 4 -20 16t-4 26q3 9 7 12.5t9 3.5t15 -3l88 -23q18 -5 28 -12t7 -19q-1 -5 -3.5 -9t-5.5 -7t-7 -5t-8 -3.5t-8.5 -1.5t-9.5 1zM183 425q-3 -13 -15.5 -20t-25.5 -4q-7 2 -8.5 2.5t-2.5 2t0.5 2.5t3 5t3.5 9l70 264q1 3 3.5 19t6.5 22t12 4q9 -2 15.5 -8.5
t9 -15.5t-0.5 -18z" />
    <glyph glyph-name="uniE660" unicode="&#xe660;" 
d="M828 396l110 -110q6 -7 6 -16t-6.5 -16t-16 -7t-15.5 7l-110 110l-110 -110q-6 -6 -15.5 -6t-16.5 6q-4 5 -5.5 10.5t0 11.5t5.5 11l110 109l-109 109q-7 6 -7 15.5t7 16.5q4 4 10 5.5t12 0t10 -5.5l109 -109l109 110q7 6 16.5 6t16 -6.5t6.5 -16t-6 -15.5zM453 23
l-188 179h-117q-33 0 -50.5 18t-17.5 50v228q0 68 68 68h117l188 180q25 23 49 25t40 -18.5t16 -58.5v-619q0 -58 -33.5 -73.5t-71.5 21.5zM512 679q0 26 -7 33.5t-16.5 2.5t-22.5 -18q-53 -52 -181 -176h-114q-26 0 -36 -10.5t-10 -35.5v-182q0 -25 10 -35t36 -10h121
q121 -129 174 -181q46 -46 46 20v592z" />
    <glyph glyph-name="uniE661" unicode="&#xe661;" 
d="M921 801v2l-1 1q-4 15 -19 15l-2 -1h-1v1l-552 -128q-7 0 -11.5 -4.5t-4.5 -11.5v-1v-1l-1 -2v-512q-26 17 -60.5 20t-70.5 -9q-54 -19 -80.5 -63.5t-10 -87.5t67 -60t104.5 2q48 17 75 54t21 77v377l500 114v-287q-26 16 -60.5 19.5t-70.5 -9.5q-21 -7 -39 -19.5
t-30.5 -27.5t-19.5 -32.5t-7.5 -35.5t6.5 -35q16 -44 66.5 -61t104.5 2q37 13 62 39t32 58v1q1 3 1.5 6.5t0.5 7.5v1v7v584zM263 -2q-35 -12 -67 -1t-43 39q-7 19 -2 37.5t21 34.5t39 25q35 12 67.5 1t43.5 -39q15 -39 -21 -74q-17 -15 -38 -23zM809 135q-24 -8 -46 -6
t-39.5 13.5t-24.5 29.5q-4 11 -4 22.5t5 23t12.5 21t19.5 17.5t25 13q35 12 67.5 1.5t43.5 -38.5q6 -20 1 -38.5t-21 -34.5t-39 -24zM875 630l-500 -115v136l500 114v-135z" />
    <glyph glyph-name="uniE662" unicode="&#xe662;" 
d="M799 672zM777 672q0 9 6.5 15.5t15.5 6.5q6 0 11 -3t8 -8t3 -11q0 -9 -6.5 -15.5t-15.5 -6.5q-6 0 -11 3t-8 8t-3 11zM687 551zM665 551q0 6 3 11t8 8t11 3q9 0 15.5 -6.5t6.5 -15.5q0 -6 -3 -11t-8 -8t-11 -3q-9 0 -15.5 6.5t-6.5 15.5zM687 217zM665 217q0 6 3 11t8 8
t11 3t11.5 -3t8.5 -8t3 -11t-3 -11t-8.5 -8t-11.5 -3q-4 0 -8 1.5t-7 4.5t-5 7.5t-2 8.5zM780 101zM758 101q0 6 3 11t8 8t11 3q5 0 9 -1.5t7 -4.5t5 -7t2 -9q0 -6 -3 -11t-8.5 -8t-11.5 -3q-4 0 -8 1.5t-7 4.5t-5 7.5t-2 8.5zM464 746l-188 -180h-117q-68 0 -68 -68v-228
q0 -32 17.5 -50t50.5 -18h117l188 -179q38 -37 71.5 -21.5t33.5 73.5v619q0 38 -16 58.5t-40 18.5t-49 -25zM523 87q0 -66 -46 -20q-52 51 -174 181h-121q-26 0 -35.5 9.5t-9.5 35.5v182q0 25 10 35.5t35 10.5h114q121 116 181 176q14 13 23 18t16 -2.5t7 -33.5v-592z
M673 235l32 -31q33 37 51 83t18 97q0 103 -69 181l-34 -29q58 -65 58 -152q0 -14 -1.5 -28t-5 -27t-8 -26t-11 -24.5t-14 -22.5t-16.5 -21zM767 119l32 -30q63 58 98.5 137.5t35.5 168.5q0 83 -30 157t-85 132l-34 -28q50 -52 77.5 -119t27.5 -142q0 -80 -32.5 -151.5
t-89.5 -124.5z" />
    <glyph glyph-name="uniE663" unicode="&#xe663;" 
d="M512 -37q-114 0 -211 56.5t-153.5 153.5t-56.5 211t56.5 211t153.5 153.5t211 56.5t211 -56.5t153.5 -153.5t56.5 -211q0 -69 -21.5 -133t-60 -116t-90.5 -90.5t-116 -60t-133 -21.5zM512 759q-149 0 -257 -102q-107 -100 -118 -246v-27q0 -102 50 -188.5t136.5 -136.5
t188.5 -50q76 0 145.5 29.5t120 80t80 120t29.5 145.5t-29.5 145.5t-80 120t-120 80t-145.5 29.5zM785 350q-14 0 -24 10t-10 24t10 24t24 10t24 -10t10 -24t-10 -24t-24 -10zM681 553q-4 4 -6.5 9t-3 10t0 10t3 10t6.5 9q10 10 24 10t24 -10q7 -6 9 -15t0 -17.5t-9 -15.5
q-10 -10 -24 -10t-24 10zM512 100q-24 0 -40.5 16.5t-16.5 39.5q0 30 25 47l21 295q0 5 5.5 7t11 0t5.5 -7l21 -295q5 -3 8.5 -7t6.5 -8.5t5.5 -9.5t3.5 -10.5t1 -11.5q0 -23 -16.5 -39.5t-40.5 -16.5zM512 623q-14 0 -24 10t-10 24t10 24t24 10t24 -10t10 -24
q0 -9 -4.5 -17t-12.5 -12.5t-17 -4.5zM295 553q-10 10 -10 24t10 24q6 7 15 9t17.5 0t15.5 -8.5t9 -15.5t0 -17.5t-9 -15.5q-10 -10 -24 -10t-24 10zM239 350q-14 0 -24 10t-10 24q0 9 4.5 17t12.5 12.5t17 4.5q14 0 24 -10t10 -24t-10 -24t-24 -10z" />
    <glyph glyph-name="uniE664" unicode="&#xe664;" 
d="M751 54q0 -6 -3.5 -12t-9 -11t-12.5 -9t-14.5 -7t-15 -4.5t-13.5 -1.5h-433q-19 0 -32 13t-13 32v660q0 19 13 32t32 13h455q8 0 15 -2t12.5 -6.5t9.5 -10t6.5 -12.5t2.5 -14v-23h45v23q0 25 -12 46t-33 33t-46 12h-455q-15 0 -28.5 -4.5t-25 -13t-20 -19.5t-13 -25
t-4.5 -29v-660q0 -38 27 -64.5t64 -26.5h455q38 0 64.5 26.5t26.5 64.5v182h-45v-182zM364 54h228q9 0 15.5 6.5t6.5 16.5q0 6 -3 11t-8 8.5t-11 3.5h-228q-6 0 -11.5 -3.5t-8.5 -8.5t-3 -11q0 -10 7 -16.5t16 -6.5zM842 600h-228q-6 0 -11 -3t-8 -8t-3 -11.5t3 -11.5t8 -8
t11 -3h171q-1 -1 -2 -1q-2 -1 -3 -3l-251 -273q-7 -7 -7 -16.5t7 -16t16 -6.5t16 7l251 273q4 5 8 11v1v-1l-1 -1v-179q0 -6 3 -11.5t8.5 -8.5t11.5 -3q5 0 9 2t7 5t5 7t2 9v227q0 7 -3 12t-8.5 8t-11.5 3z" />
    <glyph glyph-name="uniE665" unicode="&#xe665;" 
d="M796 -37h-568q-19 0 -36 7t-29 19.5t-19 29.5t-7 35v46v614q0 25 12 46t33 33t46 12h568q38 0 64.5 -26.5t26.5 -64.5v-614v-46q0 -38 -26.5 -64.5t-64.5 -26.5zM842 714q0 9 -3.5 17.5t-9.5 14.5t-14.5 9.5t-18.5 3.5h-546q-13 0 -28.5 -5.5t-27.5 -16.5t-12 -23v-527
q12 4 23 4h614q6 0 11.5 -1t11.5 -3v527zM842 100q0 9 -3.5 17.5t-9.5 14.5t-14.5 9.5t-18.5 3.5h-568q-19 0 -32.5 -13.5t-13.5 -31.5v-46q0 -9 3.5 -17.5t9.5 -14.5t14.5 -9.5t18.5 -3.5h568q13 0 23.5 6t16.5 16.5t6 22.5v46zM762 54q-14 0 -24 10t-10 24t10 24t24 10
t24 -10t10 -24t-10 -24t-24 -10zM728 577h-68v-250q0 -6 -3 -11.5t-8.5 -8.5t-11.5 -3t-11.5 3t-8.5 8.5t-3 11.5v250h-68q-9 0 -16 7t-7 16.5t7 16t16 6.5h182q6 0 11.5 -3t8.5 -8.5t3 -11.5q0 -9 -6.5 -16t-16.5 -7zM523 395q0 -14 -4.5 -28t-13 -25.5t-19.5 -19.5
t-25 -13t-29 -5h-113q-10 0 -16.5 7t-6.5 16v273q0 4 1 7.5t3 6t5 5t6.5 3.5t7.5 1h91q14 0 28 -4.5t25.5 -13t19.5 -19.5t13 -25t5 -29q0 -33 -22 -59q44 -26 44 -78zM432 577h-22h-69v-91h69h22q10 6 16.5 19.5t6.5 26.5q0 6 -1.5 13t-4.5 13t-7.5 11.5t-9.5 7.5zM432 441
h-22h-56h-13v-91h13h78q19 0 32.5 13.5t13.5 31.5q0 13 -6 23.5t-16.5 16.5t-23.5 6z" />
    <glyph glyph-name="uniE666" unicode="&#xe666;" 
d="M899 361h-182v-364q0 -6 -3 -11t-8.5 -8t-11.5 -3h-364q-6 0 -11 3t-8 8t-3 11v364h-182h-1q-9 0 -16 7q-4 5 -5.5 11t0 12t5.5 10l387 385v1q7 6 16 6q5 0 9 -1.5t7 -4.5v-1h1l386 -385q3 -3 5 -8q0 -2 0.5 -3t0.5 -3v-3q0 -5 -1.5 -9t-4.5 -7t-7.5 -5t-8.5 -2zM512 737
l-332 -330h150q10 0 16.5 -7t6.5 -16v-364h318v364q0 6 3 11t8.5 8.5t11.5 3.5h150z" />
    <glyph glyph-name="uniE667" unicode="&#xe667;" 
d="M512 88zM455 88.5q0 23.5 16.5 40.5t40.5 17q16 0 29 -8t20.5 -21t7.5 -29q0 -23 -16.5 -40t-40.5 -17t-40.5 17t-16.5 40.5zM512 737q-118 0 -226 -41t-195 -115l27 -35q40 35 85 62t95 46t104 29t110 10q74 0 145.5 -18t133.5 -50.5t115 -78.5l27 35q-182 156 -421 156
zM202 436l28 -36q120 109 282 109t282 -109l28 36q-133 119 -310 119q-20 0 -39.5 -1.5t-38 -5t-37 -8t-36.5 -10.5t-35 -13.5t-33.5 -16.5t-32 -19t-30 -21t-28.5 -24zM629 296q1 -1 7 -5q2 -1 3 -2q14 -9 24 -18v0l10 -8q5 -4 10 -9l4 6l24 32q-83 81 -199 81t-199 -81
l24 -32l7 -9q68 76 170 76q56 0 106 -26q2 -1 4 -2.5t5 -2.5z" />
    <glyph glyph-name="uniE668" unicode="&#xe668;" 
d="M788 103q-7 -3 -14 -3h-19h-2h-2h-3h-2h-97v45h113v1q67 4 113.5 53t46.5 117q0 70 -50 120t-121 50q-9 0 -18 -0.5t-17 -2.5q-8 99 -87 160q-62 48 -140 48q-94 0 -160.5 -66.5t-66.5 -160.5q-66 0 -113 -47t-47 -113q0 -65 45.5 -111t110.5 -48h95v-45h-87h-2h-2h-2h-2
h-8h-1h-1q-53 4 -96.5 32t-69 73.5t-25.5 98.5q0 74 46 130t117 71q15 99 91 165.5t178 66.5q95 0 168 -58t96 -147q89 -1 151.5 -64t62.5 -152q0 -80 -51 -140t-128 -73zM359 276l112 113q4 3 8.5 4.5t8.5 1.5h1q6 0 11 -3q7 -2 10 -5l109 -109q7 -7 7 -16.5t-7 -16
t-16 -6.5t-16 7l-75 75v-267q0 -5 -2 -9t-5 -7t-7 -5t-9 -2q-9 0 -16 7t-7 16v263l-74 -74q-7 -7 -16.5 -7t-16.5 7q-2 2 -3 4l-2 4q-1 2 -1.5 4t-0.5 4.5t0.5 4.5t1.5 4.5t2 4.5t3 3z" />
    <glyph glyph-name="uniE669" unicode="&#xe669;" 
d="M671 65v160h160v-160h-160zM740 361h-69v-68h-68v137h68v45h69v-91h91v-91h-91v68zM535 225v68h68v-68h-68zM603 65h-68v69h68v-69zM444 134v-69h-91v91h91v69h91v-91h-91zM353 156h-69v69h-91v68h251v-68h-91v-69zM193 65v91h91v-91h-91zM603 566v68v69h68v-69h69v-68
h-69h-68zM831 703v-69h-91v69h91zM831 566v-91h-91v91h91zM262 361h-69v69v204v69h69h204h69v-69v-204v-69h-69h-204zM466 634h-204v-204h204v204zM398 498h-68v68h68v-68z" />
    <glyph glyph-name="uniE66A" unicode="&#xe66a;" 
d="M637 737q0 9 7 15.5t16.5 6.5t16 -6.5t6.5 -16t-6.5 -16t-16.5 -6.5q-6 0 -11.5 3t-8.5 8t-3 12zM522.5 418q-4.5 0 -8.5 -1.5t-7 -5t-5 -7.5t-2 -9v-364q0 -9 6.5 -15.5t16 -6.5t16.5 6.5t7 15.5v364q0 5 -2 9t-5 7.5t-7.5 5t-9 1.5zM363.5 327q-9.5 0 -16 -6.5
t-6.5 -16.5v-273q0 -9 6.5 -15.5t16.5 -6.5q6 0 11 3t8 8t3 11v273q0 10 -6.5 16.5t-16 6.5zM204.5 259q-9.5 0 -16.5 -6.5t-7 -16.5v-205q0 -9 7 -15.5t16.5 -6.5t16 6.5t6.5 15.5v205q0 10 -6.5 16.5t-16 6.5zM841 600q-4 0 -8.5 -1.5t-7.5 -5t-4.5 -7.5t-1.5 -9v-546
q0 -6 3 -11t8 -8t11.5 -3t11.5 3t8 8t3 11v546q0 10 -6.5 16.5t-16.5 6.5zM682 509q-9 0 -16 -6.5t-7 -16.5v-455q0 -6 3 -11t8.5 -8t11.5 -3t11.5 3t8.5 8t3 11v455q0 5 -2 9t-5 7.5t-7 5t-9 1.5zM882 698q-5 0 -9 1t-7.5 2t-6 2t-4 2.5t-1.5 2.5q0 5 12 8t29 3h6q4 0 6 -1
q28 -2 28 -10q0 -4 -12 -7.5t-28 -3.5q-3 0 -7 0.5t-6 0.5zM137 300zM114 300q0 4 1 7t2.5 5.5t3.5 4.5t4.5 3.5t5.5 2.5t6 1q5 0 9 -2t7.5 -5t5 -7.5t1.5 -9.5q0 -9 -6.5 -16t-16.5 -7q-5 0 -9 2t-7 5t-5 7.5t-2 8.5zM876 759h-205h-8v-45h8h145l-685 -390q-1 -1 -3 -2
t-3 -2l12 -43q10 -1 29 10l718 410q9 5 14 16q4 0 6.5 1t4 3.5t1.5 7.5q0 7 -3 13.5t-7.5 11t-11 7t-12.5 2.5z" />
    <glyph glyph-name="uniE66B" unicode="&#xe66b;" 
d="M889 247h-455q-10 0 -16.5 7t-6.5 16q0 4 1 7.5t3 6t5 5t6.5 3.5t7.5 1h455q9 0 16 -6.5t7 -16t-7 -16.5t-16 -7zM889 452h-455q-5 0 -9 2t-7 5t-5 7t-2 9t2 9t5 7t7 5t9 2h455q4 0 8.5 -2t7.5 -5t5 -7t2 -9q0 -9 -7 -16t-16 -7zM889 657h-455q-10 0 -16.5 6.5t-6.5 16.5
q0 6 3 11t8 8.5t12 3.5h455q6 0 11 -3.5t8.5 -8.5t3.5 -11q0 -5 -2 -9t-5 -7t-7.5 -5t-8.5 -2zM274.5 -3q-9.5 0 -16 6.5t-6.5 16.5v643l-97 -151q-5 -9 -14 -11t-17 2.5t-10.5 13.5t2.5 17l136 213v1q0 10 6.5 16.5t16 6.5t16 -6.5t6.5 -16.5v-728q0 -10 -6.5 -16.5
t-16 -6.5zM434 88h455q9 0 16 -6.5t7 -16t-7 -16t-16 -6.5h-455q-10 0 -16.5 6.5t-6.5 16t6.5 16t16.5 6.5z" />
    <glyph glyph-name="uniE66C" unicode="&#xe66c;" 
d="M512 -37q-114 0 -211 56.5t-153.5 153.5t-56.5 211t56.5 211t153.5 153.5t211 56.5t211 -56.5t153.5 -153.5t56.5 -211q0 -69 -21.5 -133t-60 -116t-90.5 -90.5t-116 -60t-133 -21.5zM512 759q-149 0 -257 -102q-107 -100 -118 -246v-27q0 -102 50 -188.5t136.5 -136.5
t188.5 -50q76 0 145.5 29.5t120 80t80 120t29.5 145.5t-29.5 145.5t-80 120t-120 80t-145.5 29.5zM614 213h-204q-19 0 -34.5 9.5t-25 25t-9.5 34.5v204q0 29 20 49t49 20h204q29 0 49 -20t20 -49v-204q0 -14 -5.5 -27t-14.5 -22t-22 -14.5t-27 -5.5zM637 464q0 7 -2 14
t-6.5 12.5t-10 10t-12.5 6.5t-14 2h-160q-12 0 -22.5 -6t-16.5 -16.5t-6 -22.5v-160q0 -12 6 -22.5t16.5 -16.5t22.5 -6h160q18 0 31.5 13.5t13.5 31.5v160z" />
    <glyph glyph-name="uniE66D" unicode="&#xe66d;" 
d="M915 355l-387 -385q-3 -4 -7.5 -5.5t-8.5 -1.5q-10 0 -16 7h-1l-386 385q-3 4 -5 9q0 1 -0.5 2.5t-0.5 3.5v3q0 3 1 6.5t3 6.5t5 5t6.5 3.5t6.5 1.5h182v386q0 10 6.5 16.5t16.5 6.5h364q9 0 15.5 -6.5t6.5 -16.5v-386h182l1 -1q9 1 15.5 -6t6.5 -17t-6 -17zM694 350
q-10 0 -16.5 6.5t-6.5 16.5v387h-318v-387q0 -10 -7 -16.5t-16 -6.5h-150l332 -331l332 331h-150z" />
    <glyph glyph-name="uniE66E" unicode="&#xe66e;" 
d="M915 368l-272 -273q-7 -7 -16.5 -7t-16.5 7t-7 16t7 16l256 257l-256 257q-3 2 -4.5 5.5t-2 7t0 7t2 6.5t4.5 6q7 6 16.5 6t16.5 -6l271 -272l1 -1q7 -6 7 -15.5t-7 -16.5zM733 400q7 -6 7 -16q0 -2 -0.5 -4t-1.5 -4l-2 -4q-1 -2 -3 -4l-340 -341q-7 -7 -17 -7t-16.5 6.5
t-6.5 16.5v137h-228q-6 0 -11.5 3t-8.5 8t-3 11v364q0 9 7 16t16 7h228v136q0 6 3 11.5t8 8.5t11 3q5 0 9 -2l9 -5l339 -340zM398 670v-104q0 -9 -6.5 -16t-16.5 -7h-227v-318h227q10 0 16.5 -6.5t6.5 -16.5v-105l286 287z" />
    <glyph glyph-name="uniE66F" unicode="&#xe66f;" 
d="M899 179h-228v-136q0 -10 -6 -17q-3 -2 -6.5 -4t-7 -2.5t-7 0t-7 2.5t-6.5 4l-340 342q-7 7 -7 16.5t7 15.5l1 1l339 340q4 4 9 5q2 1 4 1.5t5 0.5q4 0 8.5 -1.5t7.5 -4.5t4.5 -7.5t1.5 -8.5v-137h228q9 0 16 -6.5t7 -16.5v-364q0 -6 -3 -11.5t-8.5 -8.5t-11.5 -3z
M649 543q-10 0 -16.5 7t-6.5 16v105l-286 -287l286 -287v105q0 10 6.5 16.5t16.5 6.5h227v318h-227zM158 384l256 -257q7 -7 7 -16.5t-7 -16t-16.5 -6.5t-16.5 7l-272 273q-7 7 -7 16.5t7 15.5h1v1l271 272q7 7 16.5 7t16.5 -7q4 -3 5.5 -7.5t1.5 -8.5t-1.5 -8.5t-5.5 -7.5z
" />
    <glyph glyph-name="uniE670" unicode="&#xe670;" 
d="M926 368l-385 -387q-7 -6 -17 -6t-17 6.5t-6 15.5l-1 1v182h-386q-7 0 -12 3t-8 8t-3 11v364q0 10 6.5 16.5t16.5 6.5h386v182q0 9 7 15.5t16 6.5l9 -1q5 -2 9 -5l385 -386v-1q7 -6 7 -15.5t-7 -16.5zM546 716v-150q0 -9 -6.5 -16t-16.5 -7h-387v-318h387q10 0 16.5 -6.5
t6.5 -16.5v-150l331 332z" />
    <glyph glyph-name="uniE671" unicode="&#xe671;" 
d="M910 180h-386v-182l-1 -1q1 -9 -6 -15.5t-17 -6.5t-17 6l-385 387q-2 2 -3.5 5t-2.5 5.5t-1 5.5q0 2 0.5 3.5t1 3.5t1 3.5t2.5 3.5l2 2l1 1l384 386q4 3 9 5q2 0 4 0.5t5 0.5q6 0 11 -3t8.5 -8t3.5 -11v-182h386q6 0 11.5 -3t8.5 -8.5t3 -11.5v-364q0 -4 -2 -8.5t-5 -7.5
t-7 -4.5t-9 -1.5zM501 543q-6 0 -11.5 3t-8.5 8.5t-3 11.5v150l-331 -332l331 -332v150q0 6 3 11.5t8.5 8.5t11.5 3h386v318h-386z" />
    <glyph glyph-name="uniE672" unicode="&#xe672;" 
d="M785 -37h-546q-28 0 -48 20t-20 48v706q0 28 20 48t48 20h546q14 0 26.5 -5.5t22 -14.5t14.5 -21.5t5 -26.5v-706q0 -18 -9 -34t-24.5 -25t-34.5 -9zM808 714q0 19 -13.5 32t-32.5 13h-500q-8 0 -15 -2t-12.5 -6.5t-9.5 -10t-6.5 -12.5t-2.5 -14v-660q0 -19 13.5 -32
t32.5 -13h500q19 0 32.5 13t13.5 32v660zM626 100q-25 7 -53.5 30.5t-61 48.5t-67.5 34q-42 12 -81.5 17.5t-58.5 5.5h-20q9 4 23.5 9t56.5 11.5t80 2.5q28 -3 53 -15.5t41 -26t39.5 -28.5t48.5 -21q33 -9 67 -9t52 4l17 5v-68q0 -1 -21.5 -4t-52 -4t-62.5 8zM386 314
q-2 -3 -10 -8t-18 -10.5t-21.5 -12t-22.5 -12.5t-20 -10.5t-14 -7.5l-6 -3q51 99 64 112l305 305q4 4 8.5 6.5t10 3t10.5 0t10 -3t9 -6.5q5 -5 7.5 -11.5t2.5 -13t-2.5 -12.5t-7.5 -11z" />
    <glyph glyph-name="uniE673" unicode="&#xe673;" 
d="M865 100h-182v-46h22q10 0 16.5 -6.5t6.5 -16.5q0 -6 -3 -11t-8 -8t-12 -3h-33h-1h-57q-6 0 -11 3t-8 8t-3 11t3 11.5t8 8.5t11 3h23v46h-478q-37 0 -64 26.5t-27 64.5v386q0 38 27 64.5t64 26.5h478v46h-23q-9 0 -15.5 6.5t-6.5 16.5q0 6 3 11t8 8t11 3h91
q10 0 16.5 -6.5t6.5 -15.5q0 -6 -3 -11.5t-8 -8.5t-12 -3h-22v-46h182q37 0 64 -26.5t27 -64.5v-386q0 -19 -7.5 -36t-19.5 -29t-29 -19t-35 -7zM637 623h-478q-19 0 -32 -13.5t-13 -32.5v-386q0 -19 13 -32.5t32 -13.5h478v478zM910 577q0 10 -3.5 18.5t-9.5 14.5
t-14.5 9.5t-17.5 3.5h-182v-478h182q9 0 17.5 3.5t14.5 9.5t9.5 14.5t3.5 18.5v386zM728 577h137v-386h-137v386zM159 577h433v-386h-433v386z" />
    <glyph glyph-name="uniE674" unicode="&#xe674;" 
d="M819 9h-614q-28 0 -48 20t-20 48v614q0 19 9 34.5t24.5 24.5t34.5 9h614q19 0 34.5 -9t24.5 -24.5t9 -34.5v-614q0 -41 -36 -60q-15 -8 -32 -8zM296 714h-68q-8 0 -15 -2.5t-12.5 -6.5t-9.5 -9.5t-6.5 -12.5t-2.5 -15v-159h114v205zM296 464h-114v-205h114v205zM296 213
h-114v-113q0 -19 13.5 -32.5t32.5 -13.5h68v159zM432 714h-91v-205h91v205zM432 464h-91v-205h91v205zM478 714v-205h91v205h-91zM478 464v-205h91v205h-91zM705 714h-91v-205h91v205zM705 464h-91v-205h91v205zM705 213h-364v-159h364v159zM842 668q0 8 -2.5 15t-6.5 12.5
t-9.5 9.5t-12.5 6.5t-15 2.5h-45v-205h91v159zM842 464h-91v-205h91v205zM842 213h-91v-159h45q19 0 32.5 13.5t13.5 32.5v113z" />
    <glyph glyph-name="uniE675" unicode="&#xe675;" 
d="M819 54h-23v-34q0 -7 -2.5 -13.5t-7 -11t-11 -7t-13.5 -2.5q-14 0 -24 10t-10 24v34h-432v-34q0 -7 -3 -13.5t-7.5 -11t-10.5 -7t-13 -2.5q-14 0 -24 10t-10 24v34h-23q-14 0 -26.5 5.5t-22 14.5t-14.5 21.5t-5 26.5v592q0 28 20 48t48 20h614q14 0 26.5 -5.5t22 -14.5
t14.5 -21.5t5 -26.5v-592q0 -28 -20 -48t-48 -20zM842 691q0 8 -2.5 15t-6.5 12.5t-9.5 9.5t-12.5 6.5t-15 2.5h-568q-19 0 -32.5 -13.5t-13.5 -32.5v-227h660v227zM842 418h-660v-273q0 -19 13.5 -32t32.5 -13h568q19 0 32.5 13t13.5 32v273zM739.5 236q-14.5 0 -24.5 10
t-10 24t10 24t24.5 10t24.5 -10t10 -24t-10 -24t-24.5 -10zM284 236q-14 0 -24 10t-10 24t10 24t24.5 10t24.5 -10t10 -24q0 -9 -5 -17t-12.5 -12.5t-17.5 -4.5z" />
    <glyph glyph-name="uniE676" unicode="&#xe676;" 
d="M512 -37q-114 0 -211 56.5t-153.5 153.5t-56.5 211t56.5 211t153.5 153.5t211 56.5t211 -56.5t153.5 -153.5t56.5 -211t-56.5 -211t-153.5 -153.5t-211 -56.5zM512 759q-149 0 -257 -102q-107 -100 -118 -246v-27q0 -102 50 -188.5t136.5 -136.5t188.5 -50
q76 0 145.5 29.5t120 80t80 120t29.5 145.5q0 51 -13.5 99.5t-37.5 90t-58.5 76t-76 58.5t-90 37.5t-99.5 13.5zM532 374l122 -122q6 -7 6 -16.5t-6 -15.5q-4 -3 -8 -5t-8.5 -2t-8.5 2t-7 5l-122 122l-122 -121q-5 -5 -10.5 -6.5t-11.5 0t-10 6.5q-7 6 -7 15.5t7 16.5
l122 121l-120 120q-2 2 -3.5 4.5t-2 5.5t-0.5 6t0.5 5.5t2 5t3.5 5.5q7 6 16.5 6t15.5 -6l120 -120l121 121q7 7 16.5 7t16.5 -7q3 -3 4.5 -7.5t1.5 -8.5t-1.5 -8.5t-4.5 -7.5z" />
    <glyph glyph-name="uniE677" unicode="&#xe677;" 
d="M819 -14h-614q-38 0 -64.5 26.5t-26.5 64.5v569q0 37 26.5 64t64.5 27h114v11q0 4 -0.5 9t-1 8.5t-0.5 7t1.5 5.5t4 3t7.5 1q14 0 24 -10t10 -24v-11h296v11q0 14 10 24t24 10q5 0 7.5 -1t4 -3t1.5 -5.5t-0.5 -7t-1 -8.5t-0.5 -9v-11h114q25 0 46 -12.5t33 -33.5t12 -45
v-569q0 -51 -43 -77q-22 -14 -48 -14zM865 646q0 4 -1 8l-2 8l-4 6q-1 4 -4 7l-6 5q-2 3 -5.5 5t-7.5 3.5t-8 2t-8 0.5h-114v-34q0 -14 -10 -24t-24 -10q-5 0 -8 1.5t-4 5t-0.5 7t1 10t0.5 10.5v34h-296v-34q0 -7 -2.5 -13.5t-7 -11t-11 -7t-13.5 -2.5q-5 0 -8 1.5t-4 5
t-1 7t1 10t1 10.5v34h-114q-19 0 -32.5 -13t-13.5 -32v-569q0 -13 6 -23.5t16.5 -16.5t23.5 -6h614q19 0 32.5 13.5t13.5 32.5v569zM725 316q-1 -3 -2.5 -5.5t-3.5 -4.5l-108 -108q-4 -3 -8 -5t-8.5 -2t-8.5 2t-8 5q-6 7 -6 16t6 16l75 75h-334q-10 0 -16.5 6.5t-6.5 15.5
q0 5 1.5 9t5 7.5t7.5 5t9 1.5h331l-74 74q-7 7 -7 17t7 16.5t16.5 6.5t16.5 -6l112 -112q7 -7 7 -18v-1q0 -5 -3 -11z" />
    <glyph glyph-name="uniE678" unicode="&#xe678;" 
d="M60 383zM45 383q0 6 4.5 10.5t10.5 4.5q4 0 8 -2t6 -5.5t2 -7.5q0 -7 -4.5 -11.5t-11.5 -4.5q-4 0 -7.5 2t-5.5 6t-2 8zM902 672h-546h-5q-13 3 -22 -6l-264 -252q-24 -24 -18 -35q0 -4 2 -7l291 -265q2 -2 4 -2.5t6 -0.5q4 -1 7 -1h545q28 0 48 20t20 48v433
q0 9 -2.5 18t-6.5 16.5t-10.5 13.5t-14 10.5t-16.5 7t-18 2.5zM925 194q0 -9 -3.5 -17.5t-10 -14.5t-15 -9.5t-17.5 -3.5h-318h-137h-60l-260 239l250 239h70h137h318q19 0 32.5 -13.5t13.5 -32.5v-387z" />
    <glyph glyph-name="uniE679" unicode="&#xe679;" 
d="M740 304q70 0 120 -50t50 -121t-50 -121t-120.5 -50t-120.5 50t-50 121q0 27 8 52q-3 4 -9 14l-56 100l-54 -97q-7 -12 -11 -17q8 -25 8 -52q0 -71 -50 -121t-121 -50q-46 0 -85.5 23t-62 62.5t-22.5 85.5t22.5 85.5t62 62.5t85.5 23q16 0 30.5 -2.5t28 -7.5t25.5 -12
l89 115l-207 369q-5 8 -6.5 11.5t-3 9t1 9t7.5 7.5q6 1 8.5 2.5t5.5 -2t4.5 -6.5t4 -9t4.5 -9l236 -309l236 309q2 3 4.5 9t4 9t4.5 6.5t5.5 2t8.5 -2.5q4 -3 6.5 -6t3.5 -5.5t-1 -7t-3 -6.5t-5 -9l-209 -372l89 -115q39 22 84 22zM284.5 258q-51.5 0 -88.5 -36.5t-37 -88.5
t37 -88.5t88.5 -36.5t88.5 36.5t37 88.5t-37 88.5t-88.5 36.5zM512 395q-14 0 -24 -10t-10 -24t10 -24t24 -10t24 10t10 24t-10 24t-24 10zM614 133q0 -52 37 -88.5t88.5 -36.5t88.5 36.5t37 88.5t-37 88.5t-88.5 36.5t-88.5 -36.5t-37 -88.5z" />
    <glyph glyph-name="uniE67A" unicode="&#xe67a;" 
d="M939 400l-396 387q-22 22 -27 19q-9 4 -38 -27l8 8l-8 -8l-393 -378q-6 -7 -6 -16.5t6 -15.5q1 0 1 -0.5t1 -0.5q6 -7 16 -7h91v-318q0 -29 20 -49t48 -20h501q28 0 48 20t20 49v318h91q2 0 3.5 0.5t2.5 0.5t3 1q4 2 8 5q6 7 6 16.5t-6 15.5zM808 407q-6 0 -11 -3
t-8.5 -8.5t-3.5 -11.5v-23v-42v-254q0 -18 -13 -31.5t-32 -13.5h-455q-19 0 -32.5 13.5t-13.5 31.5v268v28v23q0 6 -3 11.5t-8 8.5t-11 3h-61l359 344l353 -344h-60z" />
    <glyph glyph-name="uniE67B" unicode="&#xe67b;" 
d="M785 -30h-546q-28 0 -48 20t-20 48v319v45v91q0 10 6.5 16.5t16 6.5t16 -6.5t6.5 -16.5v-91v-45v-296q0 -19 13.5 -32t32.5 -13h500q19 0 32.5 13t13.5 32v296v136q0 10 6.5 16.5t16.5 6.5q4 0 8.5 -1.5t7.5 -4.5t4.5 -7.5t1.5 -9.5v-91v-45v-319q0 -6 -1 -12t-3 -11.5
t-5 -10.5t-7 -9.5t-8 -8.5t-9.5 -7t-11 -5t-11.5 -3t-12 -1zM444 266q28 -3 53 -15.5t41 -26t39.5 -28.5t48.5 -21q15 -4 31 -6t29 -2.5t25 0t21 2t16 3t11 2.5l3 1v-68q-3 -1 -8.5 -2t-21.5 -3t-32 -3t-36.5 1t-37.5 7q-20 5 -42.5 21.5t-40.5 33t-45 34t-54 24.5
q-42 12 -81.5 17.5t-58.5 5.5h-20q9 4 23.5 9t56.5 11.5t80 2.5zM386 321q-6 -6 -34 -22t-53 -29l-25 -13q51 99 64 113l418 418q10 10 24.5 10t24.5 -10t10 -24t-10 -24z" />
    <glyph glyph-name="uniE67C" unicode="&#xe67c;" 
d="M819 31h-614q-38 0 -64.5 27t-26.5 64v524q0 18 7 35t19.5 29t29 19.5t35.5 7.5h614q38 0 64.5 -27t26.5 -64v-524q0 -24 -12 -45t-33 -33.5t-46 -12.5zM865 646q0 9 -4 17.5t-10 14.5t-14.5 9.5t-17.5 3.5h-614q-19 0 -32.5 -13t-13.5 -32v-69h706v69zM865 532h-706
v-410q0 -12 6 -22.5t16.5 -16.5t23.5 -6h614q19 0 32.5 13t13.5 32v410zM501 182q-1 -3 -2.5 -4.5t-2.5 -3.5q-8 -7 -19 -6q-9 0 -16 6q-1 1 -1 2l-2 3l-133 132q-5 5 -6.5 10.5t0 11.5t6.5 10q7 7 16 7t16 -7l121 -120l212 211q2 3 5.5 4.5t7 2t7 0t6.5 -2t6 -4.5
q6 -6 6 -15.5t-6 -16.5z" />
    <glyph glyph-name="uniE67D" unicode="&#xe67d;" 
d="M512 -37q-84 0 -160 16.5t-123 46t-47 62.5q0 13 8 26t22.5 24.5t34.5 22t45 19t53 15.5l23 -39q-63 -11 -101.5 -29t-38.5 -39q0 -32 87 -55.5t197 -23.5t197 23.5t87 55.5q0 21 -38.5 39t-101.5 29l23 39q73 -17 118 -45.5t45 -61.5t-47 -62.5t-123 -46t-160 -16.5z
M750 364l-5 -6q-1 -2 -7 -9t-8 -8l5 6l-193 -233q-4 -7 -11 -11q0 -1 -0.5 -1.5t-1.5 -0.5t-3 -1h-1l-7 -2q-2 -1 -6 -1t-7 1q-1 0 -2.5 0.5t-3.5 1.5h-1q-2 1 -3 1l-1 1l-1 1q-7 4 -10 11l-197 235l-1 1l-1 1l-14 21l2 -3q-44 69 -44 152q0 117 83 200.5t201 83.5
t201 -83.5t83 -200.5q0 -43 -12 -82t-34 -73v-2zM512 759q-99 0 -169 -69.5t-70 -168.5q0 -47 16 -86.5t46 -66.5l177 -212l176 212q63 57 63 153q0 32 -8.5 63t-24 57t-37.5 48t-48.5 37.5t-57.5 24t-63 8.5zM554 427l-33 13l-41 -16q-21 7 -36.5 21t-24.5 33.5t-9 42.5
q0 42 30 72t72 30t72 -30t30 -72q0 -31 -16.5 -56t-43.5 -38zM512 577q-12 0 -22.5 -4.5t-18 -12t-12 -18t-4.5 -21.5q0 -24 16.5 -40.5t40.5 -16.5t40.5 16.5t16.5 40t-16.5 40t-40.5 16.5zM466 436q0 7 14 11.5t33.5 4.5t33.5 -4.5t14 -11.5t-14 -11.5t-33.5 -4.5
t-33.5 4.5t-14 11.5z" />
    <glyph glyph-name="uniE67E" unicode="&#xe67e;" 
d="M512 650zM479 650.5q0 13.5 9.5 23t23 9.5t23 -9.5t9.5 -23.5q0 -9 -4 -16.5t-12 -12t-16 -4.5q-14 0 -23.5 10t-9.5 23.5zM512 31zM489 30.5q0 9.5 7 16.5t16 7t16 -7t7 -16.5t-7 -16t-16 -6.5t-16 6.5t-7 16zM874 700q-70 69 -169 68t-169 -71q-1 -2 -4 -4.5t-4 -3.5
q-8 -6 -16 -6q-10 1 -16 5q-1 0 -4 3.5t-4 5.5q-70 70 -169 71t-169 -68q-75 -76 -70 -182q6 -92 70 -156l2 -2l4 -4l2 -2l334 -335h39l335 335q0 1 2 2.5t4 3.5l2 2q46 46 62.5 107.5t0 123t-62.5 107.5zM847 398q-2 -1 -55 -56l-257 -264l305 306l-301 -301
q-9 -11 -16 -15.5t-14 -4.5q-11 0 -28 20l-34 33l-226 232l-40 39q-8 7 -11 10q-55 58 -50.5 137t61.5 136t137 57t137 -57q14 -14 25 -30h63q5 9 11.5 17t13.5 15q37 37 87 50t100 0t87 -50q18 -19 31.5 -41.5t20 -46.5t7 -49t-5 -49t-18 -46.5t-30.5 -41.5z" />
    <glyph glyph-name="uniE67F" unicode="&#xe67f;" 
d="M819 -14h-614q-38 0 -64.5 26.5t-26.5 64.5v569q0 37 26.5 64t64.5 27h114v11q0 4 -0.5 9t-1 8.5t-0.5 7t1.5 5.5t4 3t7.5 1q14 0 24 -10t10 -24v-11h296v11q0 14 10 24t24 10q5 0 8 -1.5t4 -5t1 -7t-1 -10t-1 -10.5v-11h114q25 0 46 -12.5t33 -33.5t12 -45v-569
q0 -51 -43 -77q-22 -14 -48 -14zM865 646q0 4 -1 8l-2 8l-4 6q-1 4 -4 7l-6 5q-2 3 -5.5 5t-7.5 3.5t-8 2t-8 0.5h-114v-34q0 -7 -2.5 -13.5t-7 -11t-11 -7t-13.5 -2.5q-5 0 -8 1.5t-4 5t-0.5 7t1 10t0.5 10.5v34h-296v-34q0 -7 -2.5 -13.5t-7 -11t-11 -7t-13.5 -2.5
q-5 0 -8 1.5t-4 5t-1 7t1 10t1 10.5v34h-114q-19 0 -32.5 -13t-13.5 -32v-569q0 -19 13.5 -32.5t32.5 -13.5h614q19 0 32.5 13.5t13.5 32.5v569zM705 305h-331l74 -74q5 -5 6.5 -11t0 -12t-6.5 -11q-7 -6 -16.5 -6t-16.5 6l-112 112q-7 7 -7 18v0q0 6 3 12l6 10l108 108
q7 7 16.5 7t16 -7t6.5 -16t-6 -16l-75 -75h334q7 0 12 -3t8 -8t3 -12q0 -4 -1.5 -8.5t-5 -7.5t-7.5 -4.5t-9 -1.5z" />
    <glyph glyph-name="uniE680" unicode="&#xe680;" 
d="M831 -3h-296h-91h-69q-9 0 -15.5 6.5t-6.5 16t6.5 16.5t15.5 7h69h91h273q19 0 32 13t13 32v342v22v46q0 9 7 16t16.5 7t16 -7t6.5 -16v-46v-22v-365q0 -13 -5.5 -26t-14.5 -22t-22 -14.5t-26 -5.5zM694 134h-501q-18 0 -34 9t-25 24.5t-9 34.5v501q0 28 20 48t48 20h501
q28 0 48 -20t20 -48v-501q0 -14 -5.5 -26.5t-14.5 -21.5t-21.5 -14.5t-26.5 -5.5zM717 680q0 19 -13.5 32t-32.5 13h-455q-19 0 -32 -13t-13 -32v-455q0 -19 13 -32.5t32 -13.5h455q19 0 32.5 13.5t13.5 32.5v455zM580 430h-114v-114q0 -6 -3 -11.5t-8 -8.5t-11 -3
q-4 0 -7.5 1t-6.5 3t-5 5t-3 6.5t-1 7.5v114h-114q-6 0 -11 3t-8.5 8t-3.5 11t3.5 11.5t8.5 8.5t11 3h114v114q0 4 1 7t3 6t5 5t6.5 3.5t7.5 1.5q6 0 11 -3.5t8 -8.5t3 -11v-114h114q6 0 11.5 -3t8.5 -8.5t3 -11.5t-3 -11t-8.5 -8t-11.5 -3z" />
    <glyph glyph-name="uniE681" unicode="&#xe681;" 
d="M831 88h-69v-68q0 -14 -5.5 -26.5t-14.5 -22t-21.5 -14.5t-26.5 -5h-501q-18 0 -34 9t-25 24.5t-9 34.5v592q0 13 5.5 26t14.5 22t22 14.5t26 5.5h69v68q0 28 20 48t48 20h501q8 0 15.5 -1.5t14 -5t12.5 -8t11 -10.5t8 -13t5 -14.5t2 -15.5v-592q0 -18 -9 -34t-25 -25
t-34 -9zM216 634q-19 0 -32 -13t-13 -32v-546q0 -13 6 -23.5t16.5 -16.5t22.5 -6h455q19 0 32.5 13.5t13.5 32.5v546q0 19 -13.5 32t-32.5 13h-455zM853 725q0 19 -13 32.5t-32 13.5h-455q-19 0 -32.5 -13.5t-13.5 -32.5v-45h387q14 0 26.5 -5.5t21.5 -14.5t14.5 -22
t5.5 -26v-478h46q7 0 14 2t12.5 6.5t10 10t6.5 12.5t2 14v546zM603 88h-319q-9 0 -15.5 6.5t-6.5 16.5q0 5 1.5 9t4.5 7t7.5 5t8.5 2h319q9 0 16 -7t7 -16q0 -6 -3 -11.5t-8.5 -8.5t-11.5 -3zM603 225h-319q-9 0 -15.5 6.5t-6.5 15.5q0 5 1.5 9.5t4.5 7.5t7.5 4.5t8.5 1.5
h319q9 0 16 -6.5t7 -16t-7 -16t-16 -6.5zM603 361h-319q-9 0 -15.5 7t-6.5 16q0 6 3 11.5t8 8.5t11 3h319q9 0 16 -7t7 -16q0 -5 -2 -9t-5 -7t-7 -5t-9 -2zM603 498h-319q-9 0 -15.5 6.5t-6.5 16.5q0 6 3 11t8 8t11 3h319q9 0 16 -6.5t7 -16t-7 -16t-16 -6.5z" />
    <glyph glyph-name="uniE682" unicode="&#xe682;" 
d="M732 408q-1 -1 -2 -1h-2h-159q-6 0 -11 1.5t-9 5t-7.5 7.5t-5 9t-1.5 11v159v2q0 1 1 2q5 70 57.5 118.5t123.5 48.5q37 0 70.5 -14.5t58 -39t39 -58t14.5 -70.5q0 -47 -22 -87.5t-60.5 -65.5t-84.5 -28zM717 725q-37 0 -68.5 -18t-50 -49.5t-18.5 -68.5v-137h137
q31 0 62.5 18t52.5 50.5t21 68.5q0 69 -55 110q-37 26 -81 26zM307 -3q-75 0 -128.5 53.5t-53.5 128.5q0 71 48.5 123.5t118.5 57.5q1 1 2 1h2h159q7 0 13.5 -2.5t11 -7t7 -11t2.5 -13.5v-159v-2q0 -1 -1 -2q-6 -84 -75 -133q-48 -33 -106 -34zM444 316h-137
q-49 0 -92.5 -41t-43.5 -96q0 -56 40 -96t96.5 -40t96.5 40t40 96v137zM455 407h-159h-2l-2 1q-84 6 -133 75q-33 48 -34 106q0 37 14.5 70.5t39 58t58 39t70.5 14.5q71 0 123.5 -48.5t57.5 -118.5q1 -1 1 -2v-2v-159q0 -6 -1.5 -11t-5 -9t-7.5 -7.5t-9 -5t-11 -1.5z
M444 589q0 56 -40 96t-97 40q-28 0 -53 -10.5t-43.5 -29t-29 -43.5t-10.5 -53q0 -55 43.5 -96t92.5 -41h137v137zM569 361h159h2q1 0 2 -1q46 -3 84.5 -28t60.5 -65.5t22 -87.5q0 -37 -14.5 -70.5t-39 -58t-58 -39t-70.5 -14.5q-71 0 -123.5 48.5t-57.5 118.5l-1 2v2v159
q0 9 4.5 17t12.5 12.5t17 4.5zM580 179q0 -56 40 -96t97 -40q37 0 68.5 18t49.5 49.5t18 68.5q0 55 -43.5 96t-92.5 41h-137v-137z" />
    <glyph glyph-name="uniE683" unicode="&#xe683;" 
d="M899 361h-182v-364q0 -6 -3 -11.5t-8.5 -8.5t-11.5 -3h-364q-6 0 -11 3t-8 8.5t-3 11.5v364h-182h-1q-9 0 -15.5 7t-6.5 16.5t6 16.5l387 385q7 7 16 7q5 0 9 -1.5t7 -5.5h1l386 -385q1 -1 2 -2.5t1.5 -3t1.5 -2.5q1 -5 1 -9q0 -7 -3 -12t-8 -8t-11 -3zM512 737
l-332 -331h150q10 0 16.5 -6.5t6.5 -15.5v-364h318v364q0 6 3 11t8.5 8t11.5 3h150zM205 680q-16 0 -29 7.5t-20.5 20.5t-7.5 29q0 23 16.5 40t40.5 17q15 0 28 -8t21 -21t8 -28q0 -24 -17 -40.5t-40 -16.5z" />
    <glyph glyph-name="uniE684" unicode="&#xe684;" 
d="M728 179q0 -59 -29 -108.5t-78.5 -78.5t-108.5 -29q-90 0 -153 63.5t-63 152.5q0 80 52 140.5t130 72.5v390q0 5 1.5 9t5 7t7.5 5t9 2q9 0 15.5 -6.5t6.5 -16.5v-45h114q5 0 9 -2t7 -5t5 -7t2 -9q0 -4 -1 -7.5t-3 -6.5l-6 -4q-2 -3 -5.5 -4t-7.5 -1h-114v-68h114
q5 0 9 -2t7 -5t5 -7t2 -9q0 -9 -6.5 -16t-16.5 -7h-114v-182q86 -5 145.5 -67t59.5 -149zM341 179.5q0 -70.5 50 -120.5t121 -50t121 50t50 120.5t-50 120.5t-121 50t-121 -50t-50 -120.5z" />
    <glyph glyph-name="uniE685" unicode="&#xe685;" 
d="M911 121h-113v-114q0 -6 -3 -11t-8.5 -8t-11.5 -3t-11.5 3t-8.5 8t-3 11v114h-114q-9 0 -15.5 7t-6.5 16t6.5 16t15.5 7h114v114q0 9 6.5 15.5t16.5 6.5q6 0 11.5 -3t8.5 -8t3 -11v-114h113q10 0 16.5 -7t6.5 -16q0 -3 -0.5 -6t-2 -5.5t-4 -4.5t-5 -3.5t-5 -2.5t-6.5 -1z
M490 736q-99 0 -168.5 -70t-69.5 -169t94 -182q13 -11 20 -16q10 -6 15 -12.5t6 -10t1 -7.5q0 -7 -3 -13.5t-8 -11t-12 -7.5l2 1q-75 -29 -132.5 -92t-81.5 -142v3q0 -6 -3.5 -11t-9 -8t-11.5 -3t-11 3t-8.5 8t-3.5 11l1 4v1l2 6q24 81 83 147.5t136 102.5v0
q-36 27 -62.5 61.5t-43 78.5t-16.5 89q0 118 83.5 201t200.5 83q115 0 197.5 -79.5t86.5 -193.5h-45q-3 63 -35.5 115t-86.5 82.5t-117 30.5z" />
    <glyph glyph-name="uniE686" unicode="&#xe686;" 
d="M865 -3h-706q-14 0 -26.5 5.5t-21.5 14.5t-14.5 22t-5.5 26v501q0 28 20 48t48 20h137v69q0 28 20 48t48 20h273q28 0 48 -20t20 -48v-69h46h114q28 0 48 -20t20 -48v-501q0 -28 -20 -48t-48 -20zM660 680q0 9 -3.5 17.5t-9.5 14.5t-14.5 9.5t-18.5 3.5h-227
q-19 0 -32.5 -13t-13.5 -32v-46h319v46zM887 543q0 8 -2 15t-6.5 12.5t-10 9.5t-12.5 6.5t-14 2.5h-91h-46h-45h-319h-22h-23h-46h-68q-19 0 -32 -13.5t-13 -32.5v-182h341v57q0 14 10 24t24 10t24 -10t10 -24v-57h341v182zM887 316h-341v-12q0 -14 -10 -24t-24 -10t-24 10
t-10 24v12h-341v-228q0 -9 3.5 -17.5t9.5 -14.5t14.5 -9.5t17.5 -3.5h660q19 0 32 13t13 32v228z" />
    <glyph glyph-name="uniE687" unicode="&#xe687;" 
d="M865 31h-706q-37 0 -64 27t-27 64v524q0 18 7.5 35t19.5 29t29 19.5t35 7.5h706q37 0 64 -27t27 -64v-524q0 -18 -7.5 -35t-19.5 -29t-29 -19.5t-35 -7.5zM910 646q0 9 -3.5 17.5t-9.5 14.5t-14.5 9.5t-17.5 3.5h-706q-19 0 -32 -13t-13 -32v-524q0 -9 3.5 -17.5
t9.5 -14.5t14.5 -9.5t17.5 -3.5h706q19 0 32 13t13 32v524zM717 282q-20 0 -38 5.5t-34 16.5h-266q-33 -22 -72 -22q-52 0 -88.5 36.5t-36.5 88.5t36.5 88.5t88.5 36.5q20 0 38 -6t34 -17h266q33 23 72 23q52 0 88.5 -36.5t36.5 -88.5q0 -34 -17 -63t-45.5 -45.5
t-62.5 -16.5zM307 486q-11 0 -21 -2.5t-19 -8t-16 -12.5t-12.5 -16t-8 -19t-2.5 -21q0 -33 23 -56.5t56 -23.5t56.5 23.5t23.5 56.5q0 46 -40 69q-19 10 -40 10zM592 464h-160v-114h160v114zM717 486q-33 0 -56.5 -23t-23.5 -56t23.5 -56.5t56.5 -23.5t56 23.5t23 56.5
t-23 56t-56 23z" />
    </font>
</defs>
</svg>
